<svg viewBox="0 0 279.99999999999994 279.99999999999994" xmlns="http://www.w3.org/2000/svg" xmlns:xlink="http://www.w3.org/1999/xlink" overflow="visible" width="279.99999999999994px" height="279.99999999999994px"><defs><circle id="masteravataaardefault-with-backdrop-path-1" cx="140" cy="140" r="140"/><path d="M83,36.3476251 C83,52.6289957 105.161905,65.8276544 132.5,65.8276544 C159.838095,65.8276544 182,52.6289957 182,36.3476251 C182,34.9853134 181.844841,33.6445843 181.544472,32.3313638 C210.784239,41.4879251 232,68.792221 232,101.051724 L232,110 L32,110 L32,101.051724 C32,68.3970853 53.7386736,40.8197864 83.5337207,32.0021267 C83.1821692,33.4207025 83,34.871494 83,36.3476251 Z" id="masteravataaardefault-with-backdrop-path-3"/></defs><g id="Master/Avataaar/Default with Backdrop" stroke="none" stroke-width="1" fill="none" fill-rule="evenodd"><mask id="masteravataaardefault-with-backdrop-mask-2" fill="#ffffff"><use xlink:href="#masteravataaardefault-with-backdrop-path-1" fill="#ffffff"/></mask><use id="Oval" fill="#f4a569" xlink:href="#masteravataaardefault-with-backdrop-path-1"/><g id="Group" mask="url(#masteravataaardefault-with-backdrop-mask-2)"><g transform="translate(7.000000, 0.000000)"><path d="M133,36 C163.927946,36 189,61.072054 189,92 L189.000809,98.1660527 C194.675838,99.1185422 199,104.05429 199,110 L199,124 C199,130.052417 194.519235,135.058294 188.693975,135.881364 C186.627928,155.686472 174.237929,172.421678 157.001014,180.610469 L157,199 L161,199 C200.764502,199 233,231.235498 233,271 L233,280 L33,280 L33,271 C33,231.235498 65.235498,199 105,199 L109,199 L108.999984,180.610943 C91.7625487,172.422324 79.3721119,155.686854 77.3051107,135.88097 C71.480765,135.058294 67,130.052417 67,124 L67,110 C67,104.053942 71.3246685,99.1179645 77.0001873,98.1658855 L77,92 C77,61.072054 102.072054,36 133,36 Z" id="Body" fill="#f0d7c1" fill-rule="evenodd"/><path d="M108.998216,180.610103 C116.272713,184.066155 124.410519,186 133,186 C141.588785,186 149.725969,184.066469 157.000016,180.610943 L157.000353,185.94579 C150.441661,190.398372 142.524652,193 134,193 C124.589035,193 115.918635,189.829263 108.998807,184.497795 Z" id="shadow" fill-opacity=".24" fill="#000" fill-rule="evenodd"/><g id="Nose" fill="none" transform="translate(105.000000, 122.000000) scale(1 1)" fill-rule="evenodd"><g id="Nose/Small" stroke="none" stroke-width="1" fill="none" fill-rule="evenodd"><path d="M20,7 C20,12.5228475 24.0470996,15 28,15 C31.9529004,15 36,12.5228475 36,7 C33.8327451,7.7317728 31.1406373,8.0976592 27.9236765,8.0976592 C24.7406373,8.0976592 22.0994118,7.7317728 20,7 Z" id="Nose" fill-opacity=".16" fill="#000"/></g></g><g id="Clothing" fill="none" transform="translate(1.000000, 170.000000) scale(1 1)"><defs><path d="M156.001177,13.0710173 C174.10124,15.0965377 188,20.6637035 188,35.0769231 L187.994775,34.6445513 C213.853089,45.5674185 232,71.1642324 232,100.999485 L232,110 L32,110 L32,100.999485 C32,71.1638494 50.1473773,45.5667611 76.0062213,34.6441305 C76.2809798,20.5514284 90.0819496,15.075891 107.999825,13.0709052 L108,32 C108,45.254834 118.745166,56 132,56 C145.254834,56 156,45.254834 156,32 L156,32 Z" id="clothinghoodie-path-1"/></defs><g id="Clothing/Hoodie" stroke="none" stroke-width="1" fill="none" fill-rule="evenodd"><mask id="clothinghoodie-mask-2" fill="#ffffff"><use xlink:href="#clothinghoodie-path-1" fill="#ffffff"/></mask><use id="Hoodie" fill="#685252" xlink:href="#clothinghoodie-path-1"/><path d="M101.999618,61.7388852 L102,110 L95,110 L94.9990839,58.149718 C97.2029904,59.4596568 99.5461861,60.6605136 101.999618,61.7388852 Z M169.001367,58.1494501 L169,98.5 C169,100.432997 167.432997,102 165.5,102 C163.567003,102 162,100.432997 162,98.5 L162.001384,61.7384448 C164.454619,60.6601132 166.797629,59.4593148 169.001367,58.1494501 Z" id="Straps" fill="#F4F4F4" mask="url(#clothinghoodie-mask-2)"/><path d="M173.041065,12.7245804 C188.091243,15.5714792 198.5,21.2431784 198.5,32.3076923 C198.5,52.0200095 165.462319,68 132,68 C98.5376807,68 65.5,52.0200095 65.5,32.3076923 C65.5,21.2431784 75.908757,15.5714792 90.9589345,12.7245804 C81.8748056,16.0747223 76,21.706273 76,31.0769231 C76,51.4689754 103.821205,68 132,68 C160.178795,68 188,51.4689754 188,31.0769231 C188,21.9004995 182.366206,16.3097803 173.60124,12.9358572 Z" id="Shadow" fill-opacity=".16" fill="#000" mask="url(#clothinghoodie-mask-2)"/></g></g><g id="Mouth" fill="none" transform="translate(79.000000, 134.000000) scale(1 1)" fill-rule="evenodd"><g id="Mouth/Tongue" stroke="none" stroke-width="1" fill="none" fill-rule="evenodd"><path d="M29,15.6086957 C30.410031,25.2313711 41.062182,33 54,33 C66.9681454,33 77.6461342,25.183301 79,14.7391304 C79.1012093,14.3397326 78.775269,13 76.826087,13 C56.838426,13 41.7395748,13 31.173913,13 C29.3833142,13 28.870211,14.2404669 29,15.6086957 Z" id="Mouth" fill-opacity=".7" fill="#000"/><path d="M70,13 C70,15.7614237 67.7614237,18 65,18 L44,18 C41.2385763,18 39,15.7614237 39,13 L70,13 Z" id="Path" fill="#FFF"/><path d="M59.5,20 C63.0898509,20 66,21.5670034 66,23.5 C66,23.5829439 65.9946418,23.6652139 65.9841015,23.7467151 C65.9945755,23.8293228 66,23.9140279 66,24 L66,33 C66,39.0751322 61.0751322,44 55,44 L54,44 C47.9248678,44 43,39.0751322 43,33 L43,24 C43,23.9140279 43.0054245,23.8293228 43.0159499,23.7462082 C43.0053582,23.6652139 43,23.5829439 43,23.5 C43,21.5670034 45.9101491,20 49.5,20 C51.5111815,20 53.3090251,20.4918353 54.5013226,21.2643168 C55.6919663,20.4915641 57.489373,20 59.5,20 Z" id="Path" fill="#FF4F6D"/></g></g><g id="Eyes" fill="none" transform="translate(77.000000, 90.000000) scale(1 1)" fill-rule="evenodd"><g id="Eyes/Wink" stroke="none" stroke-width="1" fill="none" fill-rule="evenodd"><circle id="Eye" fill-opacity=".6" fill="#000" cx="30" cy="22" r="6"/><path d="M70.4123979,24.204889 C72.2589064,20.4060854 76.4166529,17.7575774 81.2498107,17.7575774 C86.065907,17.7575774 90.2113521,20.3874194 92.0675822,24.1647016 C92.618991,25.2867751 91.8343342,26.2050591 91.0428374,25.5246002 C88.5917368,23.4173607 85.1109468,22.1013658 81.2498107,22.1013658 C77.5094365,22.1013658 74.1259889,23.3363293 71.6897696,25.3292186 C70.7990233,26.0578718 69.8723316,25.3159619 70.4123979,24.204889 Z" id="Winky-Wink" fill-opacity=".6" fill="#000" transform="translate(81.252230, 21.757577) rotate(-4.000000) translate(-81.252230, -21.757577)"/></g></g><g id="Eyebrow/Outline" fill="none" transform="translate(77.000000, 82.000000) scale(1 1)" fill-rule="evenodd"><g id="Eyebrow/Outline/Default" stroke="none" stroke-width="1" fill="none" fill-rule="evenodd"><g id="I-Browse" transform="translate(12.000000, 6.000000)" fill="#000" fill-opacity=".6" fill-rule="nonzero"><path d="M3.63024536,11.1585767 C7.54515501,5.64986673 18.2779197,2.56083721 27.5230268,4.83118046 C28.5957248,5.0946055 29.6788665,4.43856013 29.9422916,3.36586212 C30.2057166,2.2931641 29.5496712,1.21002236 28.4769732,0.94659732 C17.7403633,-1.69001789 5.31209962,1.88699832 0.369754639,8.84142326 C-0.270109626,9.74178291 -0.0589363917,10.9903811 0.84142326,11.6302454 C1.74178291,12.2701096 2.9903811,12.0589364 3.63024536,11.1585767 Z" id="Eyebrow"/><path d="M61.6302454,11.1585767 C65.545155,5.64986673 76.2779197,2.56083721 85.5230268,4.83118046 C86.5957248,5.0946055 87.6788665,4.43856013 87.9422916,3.36586212 C88.2057166,2.2931641 87.5496712,1.21002236 86.4769732,0.94659732 C75.7403633,-1.69001789 63.3120996,1.88699832 58.3697546,8.84142326 C57.7298904,9.74178291 57.9410636,10.9903811 58.8414233,11.6302454 C59.7417829,12.2701096 60.9903811,12.0589364 61.6302454,11.1585767 Z" id="Eyebrow" transform="translate(73.000154, 6.039198) scale(-1, 1) translate(-73.000154, -6.039198)"/></g></g></g><g id="Facial Hair" fill="none" transform="translate(50.000000, 72.000000) scale(1 1)" fill-rule="evenodd"><g id="Facial Hair/Blank" stroke="none" stroke-width="1" fill="none" fill-rule="evenodd" fill-opacity="0"/></g><g id="Hairstyle" fill="none" fill-rule="evenodd" transform="scale(1 1)"><g id="Hairstyle/Pixie" stroke="none" stroke-width="1" fill="none" fill-rule="evenodd"><path d="M173.1408,62.8412 C173.1408,62.8412 165.9888,75.6872 145.6638,80.4402 C143.4978,80.9462 142.0228,78.2722 143.5958,76.6992 C146.4288,73.8672 149.6688,70.1962 151.5278,66.6552 C151.5278,66.6552 136.0888,76.4632 121.9228,81.7302 C106.4998,86.3702 97.8288,95.5112 93.9378,100.7262 C92.7908,102.2642 90.3508,101.7092 89.9808,99.8262 C89.1828,95.7572 88.9338,89.6502 92.3178,83.7282 C92.3178,83.7282 79.1388,93.9192 78.2588,113.8782 C78.1848,115.5582 75.9728,116.1062 75.1048,114.6642 C69.7248,105.7222 60.7198,85.4182 73.6108,64.6572 L73.3128,64.9552 C71.6888,66.5792 68.9468,64.9782 69.5918,62.7742 C72.0318,54.4352 78.5898,40.6422 96.1318,30.3302 C123.0128,14.5292 147.2578,26.0612 147.2578,26.0612 C146.2298,24.4232 147.6288,22.3542 149.5358,22.6812 C158.0368,24.1432 175.5708,29.6652 181.4958,50.4912 C181.4958,50.4912 183.2508,49.2232 185.8648,49.7772 C187.4138,50.1052 187.8628,52.1022 186.5808,53.0332 C186.5808,53.0332 205.9168,55.9402 205.9168,82.8202 C205.9168,97.5932 195.8118,110.6202 191.3288,116.2352 C190.3928,117.4082 188.5198,116.8672 188.3288,115.3782 C188.0198,112.9882 187.3408,110.0212 185.8548,107.8842 C182.9488,103.7072 175.3208,97.5312 177.6818,87.9052 L176.5288,92.6082 C176.0408,94.5932 173.3678,94.9362 172.3998,93.1362 C169.2658,87.3092 165.6708,76.1902 173.1408,62.8412" id="Fill-1" fill="#2c1b18"/></g></g><g id="Accesories" fill="none" transform="translate(63.000000, 85.000000) scale(1 1)" fill-rule="evenodd"><g id="Accesories/Round" stroke="none" stroke-width="1" fill="none" fill-rule="evenodd"><path d="M102,5 C110.919724,5 118.702944,9.86594657 122.839966,17.0881434 C123.049977,17.0306809 123.271405,17 123.5,17 L131.5,17 C132.880712,17 134,18.1192881 134,19.5 C134,20.8807119 132.880712,22 131.5,22 L124.963112,21.9999542 C125.63735,24.2145597 126,26.5649291 126,29 C126,42.254834 115.254834,53 102,53 C88.745166,53 78,42.254834 78,29 C78,27.5817328 78.1230214,26.1921987 78.3589754,24.8414867 C78.2814883,20.460693 74.9167538,17 70.8624171,17 C67.1244063,17 63.9725878,19.9417418 63.4412238,23.8340095 C63.8076631,25.4981856 64,27.2266315 64,29 C64,42.254834 53.254834,53 40,53 C26.745166,53 16,42.254834 16,29 C16,26.5649291 16.3626501,24.2145597 17.0368877,21.9999542 L10.5,22 C9.11928813,22 8,20.8807119 8,19.5 C8,18.1192881 9.11928813,17 10.5,17 L18.5,17 C18.7285947,17 18.9500235,17.0306809 19.1603931,17.0881495 C23.2970555,9.86594657 31.0802764,5 40,5 C49.3522436,5 57.4550935,10.3492902 61.4157763,18.1550973 C63.492635,15.0394413 66.9492812,13 70.8624171,13 C74.874933,13 78.4074783,15.1443461 80.4650049,18.3947271 C84.3793874,10.4592067 92.5521607,5 102,5 Z M40,9 C28.954305,9 20,17.954305 20,29 C20,40.045695 28.954305,49 40,49 C51.045695,49 60,40.045695 60,29 C60,17.954305 51.045695,9 40,9 Z M102,9 C90.954305,9 82,17.954305 82,29 C82,40.045695 90.954305,49 102,49 C113.045695,49 122,40.045695 122,29 C122,17.954305 113.045695,9 102,9 Z" id="Lennon-Glasses" fill-opacity=".16" fill="#000"/><path d="M102,3 C110.919724,3 118.702944,7.86594657 122.839966,15.0881434 C123.049977,15.0306809 123.271405,15 123.5,15 L131.5,15 C132.880712,15 134,16.1192881 134,17.5 C134,18.8807119 132.880712,20 131.5,20 L124.963112,19.9999542 C125.63735,22.2145597 126,24.5649291 126,27 C126,40.254834 115.254834,51 102,51 C88.745166,51 78,40.254834 78,27 C78,25.5817328 78.1230214,24.1921987 78.3589754,22.8414867 C78.2814883,18.460693 74.9167538,15 70.8624171,15 C67.1244063,15 63.9725878,17.9417418 63.4412238,21.8340095 C63.8076631,23.4981856 64,25.2266315 64,27 C64,40.254834 53.254834,51 40,51 C26.745166,51 16,40.254834 16,27 C16,24.5649291 16.3626501,22.2145597 17.0368877,19.9999542 L10.5,20 C9.11928813,20 8,18.8807119 8,17.5 C8,16.1192881 9.11928813,15 10.5,15 L18.5,15 C18.7285947,15 18.9500235,15.0306809 19.1603931,15.0881495 C23.2970555,7.86594657 31.0802764,3 40,3 C49.3522436,3 57.4550935,8.34929022 61.4157763,16.1550973 C63.492635,13.0394413 66.9492812,11 70.8624171,11 C74.874933,11 78.4074783,13.1443461 80.4650049,16.3947271 C84.3793874,8.45920672 92.5521607,3 102,3 Z M40,7 C28.954305,7 20,15.954305 20,27 C20,38.045695 28.954305,47 40,47 C51.045695,47 60,38.045695 60,27 C60,15.954305 51.045695,7 40,7 Z M102,7 C90.954305,7 82,15.954305 82,27 C82,38.045695 90.954305,47 102,47 C113.045695,47 122,38.045695 122,27 C122,15.954305 113.045695,7 102,7 Z" id="Lennon-Glasses" fill="#252C2F"/></g></g></g></g></g></svg>