<svg viewBox="65.7130177514793 19.75 232.21893491124268 380.1875" fill="none" xmlns="http://www.w3.org/2000/svg" xmlns:xlink="http://www.w3.org/1999/xlink" overflow="visible" width="232.21893491124268px" height="380.1875px"><g id="Master/Character/Standing"><g id="Head" transform="translate(64 9) scale(1 1)"><g id="Head/Afro Short"><g id="Group 14"><path id="Fill 1" fill-rule="evenodd" clip-rule="evenodd" d="M94.0146 52.2125V81.5885L114.858 86.2185L108.118 52.2125H94.0146Z" fill="#ffdee3"/><g id="Group 13"><path id="Fill 2" fill-rule="evenodd" clip-rule="evenodd" d="M113.179 77.7072L112.295 73.2772L97.0396 59.7462C97.0396 59.7462 99.5216 67.8822 104.679 71.8872C108.478 74.8382 113.179 77.7072 113.179 77.7072" fill="#ffbdb1"/><path id="Fill 4" fill-rule="evenodd" clip-rule="evenodd" d="M113.108 73.2932V73.2932C103.501 73.2932 96.1914 62.2372 96.1914 55.1202V37.6352C96.1914 30.5182 102.341 28.5322 110.113 28.5322C117.885 28.5322 121.369 29.9622 123.123 32.7042L123.39 56.9022C123.39 65.9702 120.88 73.2932 113.108 73.2932" fill="#ffdee3"/><path id="Fill 6" fill-rule="evenodd" clip-rule="evenodd" d="M90.1192 54.6044L89.5542 53.1454C88.6672 50.8574 89.8022 48.2834 92.0902 47.3964V47.3964C94.3792 46.5094 96.9532 47.6454 97.8402 49.9334L98.4052 51.3924C99.2922 53.6804 98.1562 56.2544 95.8682 57.1414V57.1414C93.5802 58.0284 91.0062 56.8924 90.1192 54.6044" fill="#ffdee3"/><path id="Fill 8" fill-rule="evenodd" clip-rule="evenodd" d="M91.7872 53.3914C91.5812 53.3914 91.3892 53.2644 91.3162 53.0584C91.2932 52.9934 90.7542 51.4374 91.5712 50.2784C92.1042 49.5234 93.0512 49.1404 94.3852 49.1404C94.6612 49.1404 94.8852 49.3644 94.8852 49.6404C94.8852 49.9164 94.6612 50.1404 94.3852 50.1404C93.3942 50.1404 92.7242 50.3804 92.3892 50.8544C91.8742 51.5834 92.2542 52.7124 92.2582 52.7244C92.3502 52.9844 92.2152 53.2694 91.9552 53.3624C91.8992 53.3824 91.8432 53.3914 91.7872 53.3914" fill="#ffbdb1"/><g id="Group 12"><path id="Fill 10" fill-rule="evenodd" clip-rule="evenodd" d="M123.705 23.0564C123.705 23.0564 125.779 19.3454 122.466 16.7694C120.611 15.3254 118.001 14.9274 114.631 15.9954C111.468 16.9994 113.079 12.5304 107.88 12.0784C100.492 11.4344 101.325 14.9384 97.4538 16.2724C95.5378 16.9314 94.6868 13.3654 87.4008 16.0144C84.2828 17.1484 78.2208 20.2494 80.2118 27.4294C81.3978 31.7074 78.8888 31.0534 77.2788 33.4694C74.9298 36.9924 76.0628 42.2864 78.6848 45.9504C81.3368 49.6564 83.8728 47.5604 83.5528 52.8914C82.9868 62.3114 93.9928 65.3694 94.0148 64.5924C94.0498 63.3694 94.0178 57.4304 94.0178 57.4304C94.0178 57.4304 93.9618 57.4244 93.9328 57.4154C92.2788 57.2904 90.7588 56.2544 90.1188 54.6044L89.7908 53.7574C89.7378 53.6384 89.6928 53.5094 89.6458 53.3834L89.5538 53.1454C88.6668 50.8574 89.8028 48.2834 92.0908 47.3964C93.9218 46.6874 95.9198 47.2874 97.1068 48.7214C97.1148 48.7244 97.7358 49.6354 97.8378 49.8984L97.9878 50.2834C98.9908 49.5624 100.945 47.9414 99.4988 44.7104C95.4668 35.6984 98.3458 23.8474 118.228 32.2694C132.706 38.4014 129.342 21.3814 123.705 23.0564" fill="#3e2c6a"/></g></g></g></g></g><g id="Expression" transform="translate(164 42) scale(1 1)"><g id="Expression/Grinning"><g id="Group 20"><path id="Fill 1" fill-rule="evenodd" clip-rule="evenodd" d="M7.00004 10.662C6.76104 10.662 6.52104 10.577 6.33004 10.404C5.92004 10.034 5.88804 9.40199 6.25804 8.99199C6.36304 8.87399 8.91504 6.12499 13.197 7.47799C13.724 7.64499 14.016 8.20699 13.849 8.73399C13.683 9.25999 13.125 9.55399 12.594 9.38599C9.51904 8.41299 7.76004 10.313 7.74204 10.332C7.54504 10.551 7.27204 10.662 7.00004 10.662" fill="#3e2c6a"/><g id="Group 5"><path id="Fill 3" fill-rule="evenodd" clip-rule="evenodd" d="M22.2755 9.7211C21.9825 9.7211 21.6935 9.5931 21.4965 9.3491C21.4465 9.2931 21.0745 8.9201 20.2735 9.0161C19.7305 9.0861 19.2285 8.6881 19.1645 8.1391C19.0995 7.5911 19.4925 7.0941 20.0415 7.0301C21.9965 6.8001 22.9655 7.9791 23.0695 8.1141C23.4045 8.5531 23.3205 9.1801 22.8815 9.5151C22.7005 9.6541 22.4875 9.7211 22.2755 9.7211" fill="#3e2c6a"/></g><path id="Fill 6" fill-rule="evenodd" clip-rule="evenodd" d="M14.1365 17.0666C14.1365 19.2796 12.6735 21.0726 10.8695 21.0726C9.06554 21.0726 7.60254 19.2796 7.60254 17.0666C7.60254 14.8536 9.06554 13.0606 10.8695 13.0606C12.6735 13.0606 14.1365 14.8536 14.1365 17.0666" fill="white"/><path id="Fill 8" fill-rule="evenodd" clip-rule="evenodd" d="M10.8694 13.0602V21.0732C12.6734 21.0732 14.1364 19.2792 14.1364 17.0662C14.1364 14.8542 12.6734 13.0602 10.8694 13.0602" fill="#1D1D1B"/><path id="Fill 10" fill-rule="evenodd" clip-rule="evenodd" d="M21.86 16.927C21.86 18.953 20.985 20.595 19.905 20.595C18.825 20.595 17.95 18.953 17.95 16.927C17.95 14.901 18.825 13.259 19.905 13.259C20.985 13.259 21.86 14.901 21.86 16.927" fill="white"/><path id="Fill 12" fill-rule="evenodd" clip-rule="evenodd" d="M19.9048 13.259V20.595C20.9848 20.595 21.8598 18.953 21.8598 16.927C21.8598 14.901 20.9848 13.259 19.9048 13.259" fill="#1D1D1B"/><path id="Fill 14" fill-rule="evenodd" clip-rule="evenodd" d="M19.7779 24.665L13.9039 24.815C12.9679 24.839 12.2529 25.655 12.3529 26.586C12.5769 28.679 13.3949 32.04 16.2979 32.995C18.7869 33.813 20.7949 30.068 20.4499 25.281C20.4249 24.929 20.1309 24.656 19.7779 24.665" fill="#3F1A81"/><path id="Fill 16" fill-rule="evenodd" clip-rule="evenodd" d="M13.8284 24.7465L19.6474 24.5965C20.1514 24.5835 20.5614 25.0005 20.5374 25.5045L20.4614 27.1555L12.4734 27.4585C12.4734 27.4585 12.3694 26.9695 12.3404 26.4475C12.2814 25.7135 13.0274 24.7675 13.8284 24.7465" fill="white"/><path id="Fill 18" fill-rule="evenodd" clip-rule="evenodd" d="M12.4734 27.4584L17.7544 27.2584C17.7544 27.2584 20.5274 28.2834 20.0404 29.7304C19.5574 31.1624 18.9254 33.0494 17.0444 33.1074C13.1994 33.2264 12.4734 27.4584 12.4734 27.4584" fill="#EA477F"/></g></g></g><g id="Beard" transform="translate(154 58) scale(34 32)"><g id="Beard/None" stroke="none" stroke-width="1" fill="none" fill-rule="evenodd" fill-opacity="0"/></g><g id="Accesories" transform="translate(152 50) scale(1 1)"><g id="Accesories/Glasses"><g id="Group 14"><g id="Group 3"><path id="Fill 1" fill-rule="evenodd" clip-rule="evenodd" d="M20.6712 1C17.5502 1 15.0102 4.808 15.0102 9.488C15.0102 14.168 17.5502 17.976 20.6712 17.976C23.7922 17.976 26.3322 14.168 26.3322 9.488C26.3322 4.808 23.7922 1 20.6712 1M20.6712 18.976C16.9982 18.976 14.0102 14.72 14.0102 9.488C14.0102 4.256 16.9982 0 20.6712 0C24.3442 0 27.3322 4.256 27.3322 9.488C27.3322 14.72 24.3442 18.976 20.6712 18.976" fill="#F0DB00"/></g><g id="Group 6"><path id="Fill 4" fill-rule="evenodd" clip-rule="evenodd" d="M33.4964 1.626C31.8794 1.626 30.1474 4.785 30.1474 9.488C30.1474 14.19 31.8794 17.35 33.4964 17.35C35.1134 17.35 36.8454 14.19 36.8454 9.488C36.8454 4.785 35.1134 1.626 33.4964 1.626M33.4964 18.35C31.0584 18.35 29.1474 14.457 29.1474 9.488C29.1474 4.519 31.0584 0.625999 33.4964 0.625999C35.9344 0.625999 37.8454 4.519 37.8454 9.488C37.8454 14.457 35.9344 18.35 33.4964 18.35" fill="#F0DB00"/></g><path id="Fill 7" fill-rule="evenodd" clip-rule="evenodd" d="M27.1439 9.87889L26.5209 9.09689L26.7209 8.93689C27.7059 8.14889 29.1199 8.23589 30.0049 9.13789L29.2899 9.83789C28.7679 9.30489 27.9319 9.25089 27.3449 9.71889L27.1439 9.87889Z" fill="#F0DB00"/><g id="Group 11"><path id="Fill 9" fill-rule="evenodd" clip-rule="evenodd" d="M7.50027 6.4375C7.23127 6.4375 7.01027 6.2255 7.00027 5.9555C6.99027 5.6795 7.20727 5.4475 7.48227 5.4375L15.0753 5.1725C15.3383 5.1475 15.5823 5.3785 15.5933 5.6545C15.6033 5.9305 15.3863 6.1625 15.1103 6.1715L7.51827 6.4375C7.51227 6.4375 7.50627 6.4375 7.50027 6.4375" fill="#F0DB00"/></g><path id="Fill 12" fill-rule="evenodd" clip-rule="evenodd" d="M35.0493 6.54698L35.0051 5.54798L36.9608 5.4383L37.0051 6.4373L35.0493 6.54698Z" fill="#F0DB00"/></g></g></g><g id="Standing/Lower Body" transform="translate(14 164) scale(1 1)"><g id="Standing/Lower Body/Jeans"><g id="Group 42"><path id="Fill 1" fill-rule="evenodd" clip-rule="evenodd" d="M181.594 202.193L155.991 102.074L185.662 56.0414L247.276 202.346L235.364 223.212L197.907 217.971C189.917 216.388 183.087 211.221 181.594 202.193" fill="#ffdee3"/><path id="Fill 3" fill-rule="evenodd" clip-rule="evenodd" d="M107.142 88.4206L157.546 72.0756L126.665 224.332L82.8341 221.396L75.3291 219.155C66.3771 217.044 62.8021 207.074 67.0391 198.912L107.142 88.4206Z" fill="#ffdee3"/><path id="Fill 5" fill-rule="evenodd" clip-rule="evenodd" d="M174.991 180.569H239.627L173.537 12.06L144.34 62.85L174.991 180.569Z" fill="#443389"/><g id="Group 9"><path id="Fill 7" fill-rule="evenodd" clip-rule="evenodd" d="M126.709 12.0604L120.461 28.0244C117.453 35.4534 120.322 41.7254 120.322 41.7254L73.2852 180.569H143.626L176.115 19.1484L173.536 12.0604C173.536 12.0604 169.256 0.99939 149.345 0.99939C129.434 0.99939 126.709 12.0604 126.709 12.0604" fill="#5A629D"/></g><path id="Fill 10" fill-rule="evenodd" clip-rule="evenodd" d="M97.5602 158.382C97.5112 158.382 97.4622 158.375 97.4142 158.36C97.1502 158.279 97.0012 158 97.0812 157.736L97.3742 156.779C97.4552 156.515 97.7342 156.366 97.9992 156.448C98.2632 156.529 98.4122 156.808 98.3312 157.072L98.0392 158.028C97.9722 158.244 97.7742 158.382 97.5602 158.382" fill="#443389"/><path id="Fill 12" fill-rule="evenodd" clip-rule="evenodd" d="M137.988 26.3855C137.939 26.3855 137.89 26.3785 137.842 26.3635C137.578 26.2825 137.429 26.0035 137.509 25.7395L138.1 23.8115C138.181 23.5475 138.463 23.3975 138.725 23.4805C138.989 23.5615 139.137 23.8405 139.057 24.1045L138.467 26.0315C138.4 26.2475 138.202 26.3855 137.988 26.3855M136.217 32.1665C136.169 32.1665 136.12 32.1595 136.071 32.1445C135.807 32.0635 135.659 31.7835 135.739 31.5195L136.33 29.5935C136.411 29.3285 136.692 29.1795 136.955 29.2615C137.218 29.3425 137.367 29.6225 137.287 29.8855L136.696 31.8125C136.63 32.0285 136.431 32.1665 136.217 32.1665M134.447 37.9475C134.399 37.9475 134.349 37.9405 134.3 37.9255C134.037 37.8445 133.888 37.5655 133.968 37.3015L134.558 35.3745C134.64 35.1105 134.913 34.9605 135.183 35.0425C135.447 35.1235 135.595 35.4035 135.515 35.6675L134.925 37.5935C134.859 37.8095 134.661 37.9475 134.447 37.9475M132.676 43.7285C132.629 43.7285 132.579 43.7215 132.53 43.7065C132.266 43.6265 132.118 43.3465 132.198 43.0825L132.788 41.1555C132.869 40.8915 133.145 40.7395 133.413 40.8235C133.676 40.9045 133.825 41.1845 133.745 41.4485L133.155 43.3755C133.089 43.5905 132.89 43.7285 132.676 43.7285M130.906 49.5105C130.858 49.5105 130.808 49.5035 130.759 49.4885C130.496 49.4075 130.347 49.1275 130.427 48.8635L131.017 46.9365C131.097 46.6725 131.372 46.5215 131.642 46.6045C131.906 46.6855 132.054 46.9655 131.974 47.2295L131.384 49.1565C131.318 49.3715 131.12 49.5105 130.906 49.5105M129.134 55.2915C129.086 55.2915 129.037 55.2845 128.988 55.2695C128.724 55.1885 128.576 54.9085 128.656 54.6445L129.247 52.7175C129.328 52.4525 129.604 52.3045 129.872 52.3855C130.135 52.4675 130.284 52.7465 130.204 53.0105L129.613 54.9375C129.547 55.1535 129.348 55.2915 129.134 55.2915M127.364 61.0725C127.315 61.0725 127.266 61.0655 127.217 61.0505C126.954 60.9695 126.805 60.6905 126.885 60.4265L127.476 58.4985C127.557 58.2345 127.834 58.0845 128.101 58.1675C128.365 58.2485 128.513 58.5275 128.433 58.7915L127.842 60.7185C127.776 60.9345 127.578 61.0725 127.364 61.0725M125.593 66.8535C125.546 66.8535 125.496 66.8465 125.447 66.8315C125.183 66.7515 125.035 66.4715 125.115 66.2075L125.705 64.2805C125.786 64.0165 126.063 63.8645 126.33 63.9485C126.593 64.0295 126.742 64.3085 126.662 64.5735L126.072 66.5005C126.006 66.7155 125.807 66.8535 125.593 66.8535M123.823 72.6355C123.775 72.6355 123.725 72.6285 123.676 72.6135C123.413 72.5325 123.264 72.2525 123.344 71.9885L123.934 70.0615C124.016 69.7985 124.29 69.6465 124.559 69.7295C124.823 69.8105 124.971 70.0905 124.891 70.3545L124.301 72.2815C124.235 72.4965 124.037 72.6355 123.823 72.6355M122.052 78.4155C122.005 78.4155 121.955 78.4085 121.906 78.3935C121.642 78.3135 121.494 78.0335 121.574 77.7695L122.164 75.8425C122.245 75.5785 122.522 75.4285 122.789 75.5105C123.052 75.5915 123.201 75.8715 123.121 76.1355L122.531 78.0625C122.465 78.2775 122.266 78.4155 122.052 78.4155M120.281 84.1975C120.232 84.1975 120.183 84.1905 120.134 84.1755C119.871 84.0935 119.722 83.8145 119.803 83.5505L120.393 81.6235C120.474 81.3595 120.752 81.2095 121.018 81.2925C121.282 81.3735 121.43 81.6535 121.35 81.9165L120.759 83.8435C120.693 84.0585 120.495 84.1975 120.281 84.1975M118.51 89.9785C118.462 89.9785 118.413 89.9715 118.364 89.9565C118.1 89.8755 117.952 89.5955 118.032 89.3315L118.623 87.4055C118.704 87.1395 118.981 86.9905 119.248 87.0735C119.511 87.1545 119.66 87.4345 119.58 87.6985L118.989 89.6245C118.923 89.8405 118.724 89.9785 118.51 89.9785M116.74 95.7595C116.692 95.7595 116.642 95.7525 116.593 95.7375C116.33 95.6565 116.181 95.3775 116.261 95.1135L116.851 93.1855C116.932 92.9225 117.207 92.7715 117.476 92.8545C117.74 92.9345 117.888 93.2145 117.808 93.4785L117.218 95.4065C117.152 95.6215 116.954 95.7595 116.74 95.7595M114.969 101.54C114.922 101.54 114.872 101.533 114.823 101.518C114.559 101.438 114.411 101.158 114.491 100.894L115.081 98.9675C115.162 98.7035 115.439 98.5525 115.706 98.6355C115.969 98.7165 116.118 98.9955 116.038 99.2605L115.448 101.187C115.382 101.402 115.183 101.54 114.969 101.54M113.199 107.322C113.151 107.322 113.101 107.315 113.052 107.3C112.789 107.219 112.64 106.939 112.72 106.675L113.31 104.748C113.391 104.484 113.666 104.332 113.935 104.416C114.199 104.497 114.347 104.777 114.267 105.041L113.677 106.968C113.611 107.183 113.413 107.322 113.199 107.322M111.427 113.103C111.379 113.103 111.33 113.096 111.281 113.081C111.017 113 110.869 112.72 110.949 112.456L111.54 110.529C111.621 110.264 111.899 110.115 112.165 110.198C112.428 110.279 112.577 110.558 112.497 110.822L111.906 112.749C111.84 112.965 111.641 113.103 111.427 113.103M109.657 118.884C109.608 118.884 109.559 118.877 109.51 118.862C109.247 118.781 109.098 118.502 109.178 118.238L109.769 116.31C109.85 116.046 110.129 115.898 110.394 115.979C110.658 116.06 110.806 116.339 110.726 116.603L110.135 118.531C110.069 118.746 109.871 118.884 109.657 118.884M107.886 124.665C107.839 124.665 107.789 124.658 107.74 124.643C107.476 124.563 107.328 124.283 107.408 124.019L107.998 122.092C108.079 121.828 108.357 121.677 108.623 121.76C108.886 121.841 109.035 122.12 108.955 122.385L108.365 124.312C108.299 124.527 108.1 124.665 107.886 124.665M106.116 130.446C106.068 130.446 106.018 130.439 105.969 130.424C105.706 130.343 105.557 130.064 105.637 129.8L106.227 127.873C106.308 127.609 106.584 127.459 106.852 127.541C107.116 127.622 107.264 127.902 107.184 128.166L106.594 130.093C106.528 130.308 106.33 130.446 106.116 130.446M104.345 136.227C104.298 136.227 104.248 136.22 104.199 136.205C103.935 136.125 103.787 135.845 103.867 135.581L104.457 133.654C104.538 133.39 104.815 133.238 105.082 133.323C105.345 133.403 105.494 133.683 105.414 133.947L104.824 135.874C104.758 136.089 104.559 136.227 104.345 136.227M102.574 142.009C102.525 142.009 102.476 142.002 102.427 141.987C102.164 141.906 102.015 141.626 102.095 141.362L102.686 139.435C102.766 139.171 103.046 139.023 103.311 139.104C103.575 139.185 103.723 139.464 103.643 139.728L103.052 141.655C102.986 141.87 102.788 142.009 102.574 142.009M100.803 147.79C100.755 147.79 100.706 147.783 100.657 147.768C100.393 147.687 100.245 147.407 100.325 147.143L100.916 145.216C100.996 144.952 101.275 144.802 101.541 144.885C101.804 144.966 101.953 145.245 101.873 145.509L101.282 147.436C101.216 147.652 101.017 147.79 100.803 147.79M99.0328 153.571C98.9848 153.571 98.9348 153.564 98.8858 153.549C98.6228 153.468 98.4738 153.189 98.5538 152.925L99.1438 150.997C99.2248 150.734 99.5008 150.584 99.7688 150.666C100.033 150.746 100.181 151.026 100.101 151.29L99.5108 153.218C99.4448 153.433 99.2468 153.571 99.0328 153.571" fill="#443389"/><path id="Fill 14" fill-rule="evenodd" clip-rule="evenodd" d="M139.758 20.6038C139.709 20.6038 139.66 20.5968 139.612 20.5818C139.348 20.5008 139.199 20.2218 139.279 19.9578L139.572 19.0008C139.653 18.7368 139.932 18.5878 140.197 18.6698C140.461 18.7508 140.61 19.0298 140.529 19.2938L140.237 20.2498C140.17 20.4658 139.972 20.6038 139.758 20.6038" fill="#443389"/><path id="Fill 16" fill-rule="evenodd" clip-rule="evenodd" d="M130.719 50.866L130.221 49.999C130.406 49.893 148.764 39.127 154.449 18.185L155.414 18.447C149.617 39.798 130.907 50.758 130.719 50.866" fill="#443389"/><g id="Group 20"><path id="Fill 18" fill-rule="evenodd" clip-rule="evenodd" d="M126.71 12.0604L123.936 19.1484H154.726H176.584L173.537 12.0604C173.537 12.0604 169.352 0.99939 149.346 0.99939C129.341 0.99939 126.71 12.0604 126.71 12.0604" fill="#FFC1FF"/></g><path id="Fill 21" fill-rule="evenodd" clip-rule="evenodd" d="M67.1189 192.833L56.0869 227.768H160.988C160.988 211.804 139.214 193.331 133.6 191.247L127.716 197.645C124.871 201.221 119.297 202.955 114.796 202.162L67.1189 192.833Z" fill="#F0DB00"/><path id="Fill 23" fill-rule="evenodd" clip-rule="evenodd" d="M151.537 206.805L135.429 227.769H160.988C160.988 227.769 162.65 218.903 151.537 206.805" fill="#8069FF"/><path id="Fill 25" fill-rule="evenodd" clip-rule="evenodd" d="M134.033 203.864C133.941 203.864 133.848 203.839 133.764 203.786C133.532 203.638 133.463 203.329 133.611 203.096C133.757 202.866 137.229 197.448 140.981 195.611C141.224 195.491 141.528 195.592 141.65 195.841C141.771 196.089 141.669 196.388 141.421 196.51C137.924 198.221 134.489 203.578 134.455 203.632C134.36 203.782 134.198 203.864 134.033 203.864" fill="#F85786"/><path id="Fill 27" fill-rule="evenodd" clip-rule="evenodd" d="M140.613 209.492C140.53 209.492 140.446 209.471 140.369 209.429C140.128 209.294 140.042 208.989 140.176 208.748C140.308 208.512 143.449 202.94 146.802 201.018C147.04 200.881 147.348 200.963 147.485 201.203C147.623 201.442 147.54 201.748 147.3 201.885C144.184 203.672 141.081 209.18 141.05 209.236C140.958 209.4 140.788 209.492 140.613 209.492" fill="#F85786"/><path id="Fill 29" fill-rule="evenodd" clip-rule="evenodd" d="M55 232.502H161.979V227.336H55V232.502Z" fill="#F85786"/><path id="Fill 31" fill-rule="evenodd" clip-rule="evenodd" d="M178.286 192.833L180.254 227.768H277.155C277.155 211.804 250.381 193.331 244.767 191.247L240.883 197.645C238.038 201.221 233.464 202.955 228.963 202.162L178.286 192.833Z" fill="#F0DB00"/><path id="Fill 32" fill-rule="evenodd" clip-rule="evenodd" d="M267.034 208.068L251.597 227.768H277.156C277.156 227.768 278.147 220.166 267.034 208.068" fill="#8069FF"/><path id="Fill 33" fill-rule="evenodd" clip-rule="evenodd" d="M246.297 204.407C246.219 204.407 246.139 204.388 246.066 204.35C245.82 204.222 245.726 203.92 245.854 203.675C245.981 203.434 248.985 197.744 252.569 195.598C252.802 195.457 253.112 195.533 253.255 195.771C253.398 196.008 253.32 196.315 253.083 196.457C249.742 198.457 246.77 204.082 246.74 204.139C246.651 204.309 246.477 204.407 246.297 204.407" fill="#F85786"/><path id="Fill 34" fill-rule="evenodd" clip-rule="evenodd" d="M253.326 209.462C253.257 209.462 253.186 209.448 253.12 209.418C252.868 209.303 252.757 209.007 252.871 208.755C252.982 208.509 255.643 202.694 258.824 200.497C259.052 200.34 259.362 200.395 259.519 200.624C259.677 200.851 259.62 201.162 259.392 201.319C256.44 203.359 253.807 209.11 253.781 209.169C253.698 209.353 253.515 209.462 253.326 209.462" fill="#F85786"/><path id="Fill 35" fill-rule="evenodd" clip-rule="evenodd" d="M179.167 232.502H278.146V227.336H179.167V232.502Z" fill="#F85786"/><path id="Fill 36" fill-rule="evenodd" clip-rule="evenodd" d="M134.488 20.5501L132.545 20.0801L135.871 6.32208L137.814 6.79208L134.488 20.5501Z" fill="#5A629D"/><path id="Fill 37" fill-rule="evenodd" clip-rule="evenodd" d="M160.825 20.3215L160.739 7.0805L162.739 7.0675L162.825 20.3085L160.825 20.3215Z" fill="#5A629D"/><path id="Fill 38" fill-rule="evenodd" clip-rule="evenodd" d="M79.7742 157.882H148.22L143.626 180.569H73.2852L79.7742 157.882Z" fill="#D1DDF0"/><path id="Fill 39" fill-rule="evenodd" clip-rule="evenodd" d="M168.83 157.882H231.276L240.682 180.569H174.341L168.83 157.882Z" fill="#D1DDF0"/><path id="Fill 40" fill-rule="evenodd" clip-rule="evenodd" d="M101.496 227.336L63.6209 203.907L56.0859 227.769L101.496 227.336Z" fill="#E1C321"/><path id="Fill 41" fill-rule="evenodd" clip-rule="evenodd" d="M225.81 227.336L178.801 201.971L180.211 227.336H225.81Z" fill="#E1C321"/></g></g></g><g id="Upper Body" transform="translate(34 28) scale(1 1)"><g id="Upper Body/Listening Music"><g id="Group 41"><path id="Fill 1" fill-rule="evenodd" clip-rule="evenodd" d="M136.976 63.7538C126.655 61.0098 117.366 67.1238 116.157 81.7168C114.851 97.4908 127.49 135.114 148.966 132.643C163.321 130.991 188.745 113.741 186.267 101.12C183.405 86.5418 165.628 99.2288 159.442 95.5258C155.969 93.4478 160.067 69.8938 136.976 63.7538" fill="#643FE1"/><path id="Fill 3" fill-rule="evenodd" clip-rule="evenodd" d="M183.309 105.928C183.309 105.928 182.149 108.211 189.495 102.448C196.841 96.6845 217.975 90.7425 211.151 69.3505C211.151 69.3505 197.315 81.2335 192.813 84.1795C190.141 85.9275 195.929 77.2775 194.25 73.9495C193.299 72.0645 183.73 84.5395 182.371 89.6195C181.526 92.7775 180.747 96.7835 180.747 96.7835L183.309 105.928Z" fill="#ffdee3"/><path id="Fill 5" fill-rule="evenodd" clip-rule="evenodd" d="M108.716 53.5882C96.3095 50.6492 88.2465 61.2962 86.8035 78.7192C85.2435 97.5512 93.8465 127.201 119.646 126.475C148.569 125.661 158.736 82.3382 138.194 81.5022C122.419 80.8592 126.507 88.6632 120.728 87.8202C112.337 86.5952 125.797 57.6342 108.716 53.5882" fill="#6754E1"/><path id="Fill 7" fill-rule="evenodd" clip-rule="evenodd" d="M174.792 94.0783C174.792 94.0783 177.557 97.6073 180.485 102.326C183.413 107.045 184.733 108.881 184.733 108.881C184.733 108.881 192.392 101.932 191.413 100.891C190.434 99.8503 182.831 88.5943 181.228 90.3583C179.625 92.1233 174.792 94.0783 174.792 94.0783" fill="#FF9B8F"/><path id="Fill 9" fill-rule="evenodd" clip-rule="evenodd" d="M108.716 53.5882C96.3095 50.6492 88.2465 61.2962 86.8035 78.7192C85.2435 97.5512 93.8465 127.201 119.646 126.475C148.569 125.661 158.736 82.3382 138.194 81.5022C122.419 80.8592 126.507 88.6632 120.728 87.8202C112.337 86.5952 125.797 57.6342 108.716 53.5882" fill="#6754E1"/><path id="Fill 11" fill-rule="evenodd" clip-rule="evenodd" d="M78.1768 133.416C73.1798 133.03 68.5518 120.165 68.1308 108.468C67.1888 82.3336 71.5318 82.7816 74.8648 83.4886L78.1768 133.416Z" fill="#D1DDF0"/><path id="Fill 13" fill-rule="evenodd" clip-rule="evenodd" d="M92.641 76.8703C87.359 53.6503 108.29 46.6293 123.466 52.3693L138.315 61.4813L140.433 62.7803C151.513 70.0503 154.514 83.0053 154.33 98.2783L152.521 126.14C152.826 134.062 153.978 139.332 154.591 145.568C154.728 146.962 154.36 148.3 152.96 148.33L137.568 148.549L106.676 148.99C91.817 147.312 92.641 76.8703 92.641 76.8703" fill="#B9C8FF"/><path id="Fill 15" fill-rule="evenodd" clip-rule="evenodd" d="M106.676 148.991C106.676 148.991 93.3035 146.869 84.9665 143.479C83.5345 142.896 82.2505 142.277 81.2085 141.623C72.7145 136.3 72.2085 90.9905 75.7885 67.8575C79.4655 44.0985 111.924 48.5035 117.477 53.1025C123.031 57.7015 106.676 148.991 106.676 148.991" fill="#F0DB00"/><path id="Fill 17" fill-rule="evenodd" clip-rule="evenodd" d="M81.535 123.811C81.474 121.799 80.065 74.4907 81.108 69.5297C83.567 57.8317 90.794 52.6117 104.54 52.6027V53.6027C91.177 53.6117 84.462 58.4357 82.087 69.7357C81.068 74.5807 82.52 123.29 82.535 123.781L81.535 123.811Z" fill="#D8B846"/><path id="Fill 19" fill-rule="evenodd" clip-rule="evenodd" d="M133.67 64.042C133.67 64.042 139.26 76.485 137.039 160.465L106.059 160.504C100.408 160.565 95.5272 156.569 94.4832 151.015C89.8792 126.504 78.6582 66.538 98.9802 54.223C119.596 41.73 133.67 64.042 133.67 64.042" fill="#8069FF"/><path id="Fill 21" fill-rule="evenodd" clip-rule="evenodd" d="M101.799 52.8406C101.799 52.8406 120.314 42.8616 128.429 63.7366C139.018 90.9766 116.009 117.103 86.1553 138.972V130.128C86.1553 130.128 125.029 99.4066 119.78 66.2746C117.009 48.7816 101.799 52.8406 101.799 52.8406" fill="#3F1A81"/><path id="Fill 23" fill-rule="evenodd" clip-rule="evenodd" d="M86.4054 76.5991C81.8524 99.0841 89.1674 133.348 114.966 132.632C147.772 131.72 156.766 85.5931 136.225 84.7571C120.449 84.1141 125.408 92.3271 119.772 90.7951C104.509 86.6461 119.004 57.7791 105.778 55.3811C98.8314 54.1221 90.5144 56.3101 86.4054 76.5991Z" fill="#643FE1"/><path id="Fill 25" fill-rule="evenodd" clip-rule="evenodd" d="M143.023 92.3471C143.023 92.3471 143.312 90.3861 142.061 82.3651C139.892 68.4661 132.945 60.5491 125.703 58.0211C125.703 58.0211 130.112 66.4241 128.224 69.1111C126.616 71.3991 123.187 65.6501 122.12 67.1861C120.623 69.3431 124.997 79.2561 129.273 82.5071C131.932 84.5291 130.359 89.2661 130.359 89.2661L143.023 92.3471Z" fill="#ffdee3"/><path id="Fill 27" fill-rule="evenodd" clip-rule="evenodd" d="M127.961 87.7986C127.961 87.7986 129.537 91.1896 135.005 93.5856C140.473 95.9816 143.127 93.1546 143.127 93.1546C143.127 93.1546 144.256 85.7076 142.743 85.3096C141.23 84.9126 129.713 80.5506 129.273 82.5076C128.833 84.4636 127.961 87.7986 127.961 87.7986" fill="#FF9B8F"/><path id="Fill 29" fill-rule="evenodd" clip-rule="evenodd" d="M131.845 160.505H132.845V151.959H131.845V160.505Z" fill="#6754E1"/><path id="Fill 31" fill-rule="evenodd" clip-rule="evenodd" d="M126.471 160.505H127.471V151.959H126.471V160.505Z" fill="#6754E1"/><path id="Fill 32" fill-rule="evenodd" clip-rule="evenodd" d="M121.141 160.505H122.141V151.959H121.141V160.505Z" fill="#6754E1"/><path id="Fill 33" fill-rule="evenodd" clip-rule="evenodd" d="M116.271 160.505H117.271V151.959H116.271V160.505Z" fill="#6754E1"/><path id="Fill 34" fill-rule="evenodd" clip-rule="evenodd" d="M110.777 160.505H111.777V151.959H110.777V160.505Z" fill="#6754E1"/><path id="Fill 35" fill-rule="evenodd" clip-rule="evenodd" d="M105.942 160.505H106.942V151.959H105.942V160.505Z" fill="#6754E1"/><path id="Fill 36" fill-rule="evenodd" clip-rule="evenodd" d="M106.067 152.459L106.051 151.459L136.474 150.986L136.49 151.986L106.067 152.459Z" fill="#6754E1"/><path id="Fill 37" fill-rule="evenodd" clip-rule="evenodd" d="M238.279 93.8772C238.284 93.8652 238.293 93.8562 238.297 93.8442V74.5482L255.671 76.7812V95.7122C256.617 95.0232 258.153 94.8812 259.656 95.4642C261.715 96.2622 262.921 98.1062 262.349 99.5822C261.777 101.058 259.643 101.607 257.584 100.809C256.043 100.211 254.98 99.0292 254.782 97.8532H254.714V80.1152L239.254 78.1272V92.7792C240.209 92.2012 241.638 92.1052 243.045 92.6502C245.104 93.4492 246.31 95.2932 245.738 96.7682C245.166 98.2442 243.032 98.7942 240.973 97.9952C238.913 97.1972 237.707 95.3532 238.279 93.8772" fill="#D1DDF0"/><path id="Fill 38" fill-rule="evenodd" clip-rule="evenodd" d="M200.455 17.3285C200.46 17.3165 200.469 17.3075 200.473 17.2955V-2.00049L217.847 0.232512V19.1635C218.793 18.4745 220.329 18.3325 221.832 18.9155C223.891 19.7135 225.097 21.5575 224.525 23.0335C223.953 24.5095 221.819 25.0585 219.76 24.2605C218.219 23.6625 217.156 22.4805 216.958 21.3045H216.89V3.56651L201.43 1.57851V16.2305C202.385 15.6525 203.814 15.5565 205.221 16.1015C207.28 16.9005 208.486 18.7445 207.914 20.2195C207.342 21.6955 205.208 22.2455 203.149 21.4465C201.089 20.6485 199.883 18.8045 200.455 17.3285" fill="#B9C8FF"/><path id="Fill 39" fill-rule="evenodd" clip-rule="evenodd" d="M228.684 36.6317L235.536 37.9077V56.8387C236.482 56.1497 238.018 56.0077 239.521 56.5907C241.581 57.3897 242.787 59.2327 242.215 60.7087C241.642 62.1847 239.509 62.7337 237.449 61.9357C235.908 61.3377 234.846 60.1557 234.648 58.9797H234.58V41.2417C234.58 41.2417 229.749 40.7087 228.684 36.6317" fill="#FFC1FF"/><path id="Fill 40" fill-rule="evenodd" clip-rule="evenodd" d="M179.599 27.7333L186.451 29.0093V47.9403C187.397 47.2513 188.933 47.1093 190.436 47.6923C192.496 48.4913 193.702 50.3343 193.13 51.8103C192.557 53.2863 190.424 53.8353 188.364 53.0373C186.823 52.4393 185.761 51.2573 185.563 50.0813H185.495V32.3433C185.495 32.3433 180.664 31.8103 179.599 27.7333" fill="#8069FF"/></g><g id="Group 10"><g id="Group 3"><path id="Fill 1_2" fill-rule="evenodd" clip-rule="evenodd" d="M190.849 91.4845L187.167 83.1715C186.775 82.2865 187.094 81.2475 187.915 80.7345L211.025 66.2955C211.978 65.7005 213.235 66.0345 213.768 67.0235L217.703 74.3345C218.18 75.2205 217.902 76.3245 217.063 76.8795L193.699 92.3195C192.696 92.9825 191.336 92.5845 190.849 91.4845" fill="#F85786"/></g><path id="Fill 4" fill-rule="evenodd" clip-rule="evenodd" d="M193.781 89.598L189.941 80.597L211.153 67.279L215.394 75.306L193.781 89.598Z" fill="#443389"/><path id="Fill 6" fill-rule="evenodd" clip-rule="evenodd" d="M201.719 81.9749L199.315 76.7319L210.06 70.0539L212.638 74.7629L201.719 81.9749Z" fill="#643FE1"/><path id="Fill 8" fill-rule="evenodd" clip-rule="evenodd" d="M198.46 82.4702C198.235 83.9812 196.93 85.0392 195.545 84.8322C194.16 84.6262 193.219 83.2342 193.444 81.7232C193.669 80.2122 194.974 79.1542 196.359 79.3612C197.745 79.5672 198.685 80.9592 198.46 82.4702" fill="#8069FF"/></g></g></g></g></svg>