<svg viewBox="126.64864864864853 268.2750000000001 825.1351351351352 823.9874999999998" xmlns="http://www.w3.org/2000/svg" overflow="visible" xmlns:xlink="http://www.w3.org/1999/xlink" width="825.1351351351352px" height="823.9874999999998px"><g id="Master/Character/Avatar and Backdrop" stroke="none" stroke-width="1" fill="none" fill-rule="evenodd"><g id="Avatar Background" transform="translate(44.000000, 269.000000) scale(1 1)"><g id="Avatar Background/Backdrop 1" stroke="none" stroke-width="1" fill="none" fill-rule="evenodd"><g id="Group" transform="translate(100.000000, 0.000000)"><circle id="Full-Moon" stroke="#000" stroke-width="18" fill="#FFCF77" opacity=".9" cx="402" cy="402" r="393"/><path d="M402,0 C624.018469,0 804,179.981531 804,402 C804,624.018469 624.018469,804 402,804 C179.981531,804 0,624.018469 0,402 C0,179.981531 179.981531,0 402,0 Z M398.541935,12.9677419 C185.117729,12.9677419 12.1032258,185.982246 12.1032258,399.406452 C12.1032258,612.830658 185.117729,785.845161 398.541935,785.845161 C611.966142,785.845161 784.980645,612.830658 784.980645,399.406452 C784.980645,185.982246 611.966142,12.9677419 398.541935,12.9677419 Z" id="Full-Moon-Copy" fill="#000" fill-rule="nonzero"/></g></g></g><g id="Head" transform="translate(332.000000, 483.000000) scale(0.9978902953586498 1)"><g id="Head/Beanie" stroke="none" stroke-width="1" fill="none" fill-rule="evenodd"><path d="M244.801076,58.7061513 C289.572611,58.7061513 343.290355,80.4107214 347.857576,80.8448128 L347.980873,80.851412 C350.383805,80.851412 359.773072,88.0046317 376.148674,102.311071 L358.412048,136.905077 L359.847401,138.275654 C366.716004,144.860995 372.579732,150.86334 377.20818,155.594994 C414.999829,194.229324 421.792237,345.918858 412.88601,398.818005 C403.979783,451.717153 387.483712,503.479944 310.685218,503.479944 C233.886725,503.479944 148.446655,457.302629 135.285147,442.922462 C126.510808,433.335685 116.654935,428.742788 105.717528,429.143771 C105.268005,428.576557 104.822108,428.011003 104.379837,427.447111 L102.770605,427.219146 C87.633459,425.026858 76.7873358,422.076066 70.2326472,418.367754 C57.4294952,411.124377 43.3572802,373.045104 43.3572802,364.656723 C43.3572802,356.352227 22.3445065,295.939883 21.924251,289.546864 L21.9178621,289.36978 C21.9178621,284.025444 -5.53321454,259.457893 -5.53321454,251.655721 C-5.53321454,243.853549 -11.0664291,244.32691 -5.53321454,216.833266 L-3.92565876,208.756436 C1.96255037,179.483802 13.4873849,131.012555 57.4294952,109.950337 C105.717528,86.8050433 199.577304,58.7061513 244.801076,58.7061513 Z" id="Skin" fill="#ffdbb4"/><path d="M244.793497,59 C289.565032,59 343.282776,80.70457 347.849997,81.1386614 L347.973294,81.1452607 C350.376226,81.1452607 359.765493,88.2984803 376.141095,102.60492 L372.160288,110.364039 C284.009622,112.095217 223.337123,119.259615 190.142792,131.857234 C151.660133,146.461831 127.502474,201.947011 117.669814,298.312773 C104.224511,304.680309 90.7792072,313.061256 77.3339036,323.455616 C63.8886,333.849976 60.4852098,339.218683 67.123733,339.561738 C66.5453697,361.837211 68.3278576,377.392951 72.4711966,386.228956 C76.6145355,395.064961 90.9559204,400.264905 115.495351,401.828787 L115.495351,401.828787 L121.729532,422.705783 L120.867295,432.381225 C116.069485,430.224255 111.017036,429.243053 105.709949,429.43762 C105.260426,428.870406 104.814529,428.304852 104.372258,427.74096 L102.763026,427.512994 C87.62588,425.320707 76.7797568,422.369915 70.2250682,418.661603 C57.4219162,411.418226 43.3497012,373.338952 43.3497012,364.950572 C43.3497012,356.646075 22.3369275,296.233732 21.9166721,289.840712 L21.9102831,289.663629 C21.9102831,284.319293 -5.54079354,259.751741 -5.54079354,251.949569 C-5.54079354,244.147397 -11.0740081,244.620759 -5.54079354,217.127114 L-3.93323776,209.050285 C1.95497137,179.777651 13.4798059,131.306403 57.4219162,110.244186 C105.709949,87.098892 199.569725,59 244.793497,59 Z" id="hat" fill="#9DDADB"/><path d="M49.9759,108.863 C74.05864,83.3012 210.780353,43.763174 279.951662,52.1442952 L282.0269,52.413 C287.5469,53.113 292.9869,54.173 298.3559,55.613 C315.7099,59.666 333.6359,65.803 347.9749,76.054 C359.9459,84.44 397.7089,98.135 386.5789,120.073 C390.7059,127.892 392.2459,137.552 389.4569,145.253 C389.1059,147.913 388.2859,150.363 387.2369,152.903 C396.0539,165.914 403.0349,180.628 408.6859,194.623 C418.5609,229.844 424.7059,266.498 425.6059,302.433 C428.5999,370.705 421.1139,452.256 361.6519,496.404 C325.7309,524.379 269.4629,525.319 229.0959,490.633 C226.8049,487.922 216.0319,480.606 219.6269,479.323 C220.6969,480.453 221.7969,481.553 222.9169,482.633 C222.8659,482.513 222.8559,482.393 222.8769,482.263 L221.823473,481.309028 C219.839749,479.473835 217.269834,476.812131 220.1969,477.333 C220.3259,477.483 220.4669,477.613 220.6059,477.763 C221.225837,478.134875 221.694181,478.457271 222.05859,478.741515 L222.246041,478.891534 L222.188128,478.831293 C220.502038,477.033357 219.491192,475.199546 222.012175,476.370731 L222.3459,476.533 C223.4669,477.713 224.6059,478.843 225.7659,479.943 C225.7469,479.813 225.7659,479.683 225.8369,479.543 L224.75535,478.498176 C223.699588,477.46362 223.860724,477.459206 224.3769,476.623 C222.1329,473.478 226.3219,475.346 226.6159,476.573 C229.2369,475.953 231.5379,480.873 233.2259,481.473 C307.2249,538.363 414.6119,487.884 412.8729,329.359 L412.846346,326.257389 C412.337744,275.567908 408.07202,223.46856 387.1059,177.583 C385.0669,173.163 382.7859,168.863 380.2769,164.703 C378.5469,161.583 376.6969,158.543 374.7069,155.583 C369.1359,155.133 363.6359,154.113 358.2169,152.533 C356.3559,152.063 354.5159,151.543 352.6769,150.933 C325.7969,152.399 299.5159,153.994 272.5609,155.506 L264.141372,156.030389 C241.307275,157.49837 217.69246,159.84959 199.2659,173.973 C181.1859,186.831 181.1039,212.186 165.6269,226.303 C143.5569,241.282 143.3959,254.789 139.1459,276.863 C139.4609,293.503 150.9989,317.68 129.8259,324.683 C133.3979,329.776 128.4189,327.329 128.0269,325.543 C127.9869,325.553 127.9469,325.563 127.9169,325.563 C131.0999,331.48 126.4209,327.754 126.0069,325.853 C125.7569,325.783 125.5069,325.603 125.2569,325.353 C128.4639,330.537 123.2799,326.907 123.5869,325.963 C117.3899,316.438 104.6359,314.959 95.6459,317.483 C95.5359,317.823 95.1369,317.853 94.8869,317.673 C56.6599,325.957 66.5229,405.093 105.6969,397.443 C107.3739,397.101 107.3339,397.906 107.6669,397.983 C106.7619,395.607 109.3129,396.574 109.2859,397.073 L109.441338,397.065453 C109.564505,397.054593 109.514122,397.041111 109.6059,397.073 C108.7309,392.214 113.6549,399.254 113.2659,399.543 C113.4169,399.453 113.5869,399.403 113.7369,399.383 L113.567399,398.921749 C112.750208,396.744712 112.820264,397.649576 112.8259,396.403 C112.2119,394.862 112.1669,395.536 112.3109,394.532 C114.4689,392.86 115.1059,397.932 115.8259,398.303 C114.5919,396.583 115.5729,395.178 116.7369,396.112 C125.5599,414.67 136.9569,432.107 151.6859,445.843 C153.2969,447.113 154.9269,448.363 156.6159,449.543 C162.8809,455 172.4909,458.509 178.3559,463.343 C178.3559,463.423 178.3169,463.523 178.2569,463.623 L178.39115,463.74425 L178.39115,463.74425 L178.5269,463.873 L180.5669,464.853 C181.1669,465.363 181.7069,465.933 182.1859,466.563 C182.6969,467.153 183.1459,467.803 183.5269,468.493 C183.7169,469.333 183.2969,469.683 182.4969,469.323 C182.1459,469.203 181.7969,469.063 181.4469,468.933 C181.4669,468.963 181.4759,468.983 181.4969,469.003 C181.61165,469.176571 182.388451,470.977375 181.493354,470.684363 L181.3869,470.643 C180.8959,470.463 180.4069,470.263 179.9269,470.073 C180.4969,470.783 181.0159,471.553 181.4759,472.203 C181.9669,472.713 182.2659,473.313 182.3869,473.993 C182.3659,474.373 182.1569,474.533 181.7769,474.483 C181.1969,474.293 180.6269,474.093 180.0559,473.883 L180.218285,474.192775 C180.621712,474.986299 181.195061,476.317194 180.1769,475.873 C179.3059,475.603 178.4669,475.293 177.6269,474.953 C177.5559,475.093 177.4169,475.143 177.1369,475.013 C174.4669,474.063 171.8869,472.903 169.4169,471.533 C167.2469,469.953 165.0559,468.403 162.8769,466.833 C160.8259,465.603 158.8459,464.233 156.9569,462.693 C144.3109,454.525 133.2399,444.149 124.4569,432.593 C109.7679,445.314 80.3989,433.161 62.2319,423.203 C46.1629,414.303 39.8469,397.847 38.2139,380.105 C34.8189,356.219 15.2989,348.043 16.6569,295.633 C16.6269,295.643 16.5959,295.643 16.5559,295.643 C15.8459,295.433 15.1569,295.153 14.5069,294.793 C13.8369,294.473 13.2069,294.093 12.6159,293.633 L11.8859,292.623 L11.8859,292.623 C11.5069,292.413 11.1669,292.193 10.9069,291.973 L10.7720626,292.146894 C10.3452333,292.661965 10.63215,291.887 10.6569,291.733 L9.38875352,290.0084 C6.38188437,285.903078 3.083025,281.29675 0.3959,277.613 L0.311258601,277.762679 C0.250471429,277.875653 0.218328571,277.957286 0.2469,277.993 C-6.1481,268.805 -12.1621,257.707 -13.8331,246.963 C-15.8061,238.687 -15.0351,230.159 -13.3141,222.493 C-5.9351,195.648 18.2369,134.9 49.9759,108.863 Z M223.523686,480.116032 L223.122951,479.759136 L223.475308,480.200613 C223.659955,480.42876 223.84899,480.63382 224.1569,480.843 C224.1369,480.773 224.1369,480.703 224.1459,480.623 C223.941698,480.467121 223.732905,480.296655 223.523686,480.116032 Z M279.6459,65.633 C232.7379,61.6 186.6009,71.934 141.8389,84.443 L138.751029,85.3305184 C113.298885,92.5930675 86.385913,99.1281948 64.8769,114.673 C34.8259,137.69 19.3079,174.306 5.7659,208.113 C-6.0591,233.231 -0.0141,261.554 17.8059,279.093 C19.6599,261.664 22.8209,244.745 27.7609,227.962 C28.7919,225.34 28.0119,224.481 30.2339,224.139 C33.5899,269.367 17.0609,302.783 49.7709,356.385 C63.9639,381.677 47.5339,400.183 87.6139,413.492 L88.6985408,413.90645 C97.0486222,417.057302 106.167483,419.544417 114.3459,417.783 L113.613193,416.591163 C112.865939,415.363801 112.639181,414.768 113.7259,414.243 C113.6969,414.183 113.6569,414.123 113.6159,414.053 C112.7369,412.393 111.8869,410.713 111.0759,409.013 C110.7469,409.123 110.4169,409.203 110.0759,409.293 C110.2969,409.703 110.3259,410.113 109.7069,410.253 C107.5033,411.009 105.240464,411.312022 102.924085,411.170197 L102.4269,411.133 C99.8099,410.973 98.1609,410.496 96.6859,410.053 C96.1969,409.973 95.7069,409.893 95.2259,409.793 C90.4809,408.741 85.4579,406.065 82.2069,403.413 C45.1489,382.365 48.9789,310.716 94.6569,303.943 C95.5939,258.831 117.0509,182.723 152.6609,139.736 C184.8489,100.195 272.7229,83.057 333.8589,89.1 C334.7499,89.395 335.6409,89.693 336.5319,89.994 C345.9639,90.832 354.9529,95.034 364.3919,96.986 C357.6149,91.907 349.9269,88.524 342.0079,85.649 C326.2299,75.998 308.1419,70.776 290.6669,67.093 C287.0469,66.203 283.3769,65.713 279.6459,65.633 Z M92.5662,340.1829 C95.0222,338.8489 94.7412,340.1369 95.3062,339.7629 C112.9722,338.3219 132.0212,353.7889 141.8962,366.6829 C141.1162,367.4929 139.0062,365.0929 138.6362,364.7129 C138.5862,364.7629 138.5262,364.8029 138.4662,364.8229 L138.741174,365.210988 C142.74361,370.954718 134.809221,364.195942 134.0662,362.8029 C133.9362,362.8729 133.8062,362.9129 133.6562,362.8829 C134.2852,363.4999 136.2062,365.1089 136.5362,366.2529 L137.045494,366.676733 C141.847898,370.78921 141.449332,373.882812 135.9972,368.0429 C136.1262,368.3129 136.1762,368.5629 136.0862,368.7629 L136.27393,368.888003 C138.954977,370.761539 141.159882,375.984218 135.5562,370.6229 C136.1392,374.5389 130.0032,366.9699 129.8062,367.0229 C119.1882,358.6879 103.5552,350.5819 90.2362,349.4929 L89.77779,349.440232 C87.3337388,349.126208 86.1782,348.401043 87.0362,346.8029 C84.0262,346.0869 84.7312,344.6049 86.1562,344.6529 C84.0332,343.2569 85.9442,341.9219 87.1762,342.4429 C86.3292,340.0979 89.7262,341.6599 90.0362,341.3329 C91.7992,338.6139 92.2742,340.8819 92.5662,340.1829 Z M55.5363,194.8329 C64.0213,191.7249 89.0843,201.0289 87.0793,213.3509 C85.8853,216.1799 81.9513,217.8009 79.1863,216.2039 L75.5774719,213.780141 C69.2971698,209.574177 63.6330368,205.886111 56.8903,202.2179 C53.2203,200.3969 51.6403,196.5309 55.5363,194.8329 Z M103.8112,176.5217 L100.534261,174.389194 C82.8503248,162.815592 57.8511,145.27882 102.1862,163.4227 C107.2392,165.5897 113.9532,166.8717 116.7102,171.6837 C121.0412,180.5527 109.6432,181.1487 103.8112,176.5217 Z M105.7984,124.5927 C104.3794,119.2077 122.0364,125.5267 127.1764,127.1927 L127.959291,127.488387 C132.959307,129.351465 138.6908,131.0798 141.6814,135.3947 C145.1854,141.3567 138.0934,142.5917 133.7004,139.8987 C124.6934,134.0127 114.8184,129.5717 105.7984,124.5927 Z M150.6987,99.5078 C140.76009,88.65443 167.358628,99.0515882 171.342946,101.937672 L171.4567,102.0228 C174.4297,104.1158 173.8267,108.6238 171.0337,109.9478 C163.0867,110.0988 157.2387,103.4748 150.6987,99.5078 Z M195.9247,87.6166 C180.1247,76.2616 200.9377,81.6626 208.1667,86.1126 C213.0937,90.4576 208.0187,97.7926 195.9247,87.6166 Z" id="Ink" fill="#000"/></g></g><g id="Face" transform="translate(491.000000, 669.000000) scale(1 1)" fill="#000"><g id="Face/Smile Big" stroke="none" stroke-width="1" fill="none" fill-rule="evenodd"><path d="M79.1996019,197.798966 C90.1214942,191.222404 130.944848,196.042976 163.01327,197.798966 C188.478595,199.193385 206.667356,196.429949 212.488767,200.348155 C225.641067,209.200546 219.252652,252.006116 196.589222,257.86012 C173.925792,263.714125 89.9129827,271.890526 75.4275085,257.86012 C60.9420343,243.829714 59.6047058,209.597931 79.1996019,197.798966 Z" id="teeth" fill="#FFF"/><path d="M93.3467129,186.476493 C110.488788,184.396013 127.104995,189.644043 143.862898,192.289481 C152.710839,193.685435 161.569756,194.727668 170.523469,195.115267 C172.32459,195.193982 174.126708,195.239817 175.928826,195.276684 C176.096465,193.690417 176.984552,192.233683 178.908408,191.360838 C182.851913,189.573299 186.008114,188.767213 190.337788,188.93959 C194.301251,189.096024 198.278683,189.503551 202.181276,190.217969 C209.268011,191.517272 216.386677,194.465615 221.570511,199.588099 C233.567668,211.441255 231.741602,230.480436 222.47157,243.39077 C203.319435,270.068282 168.364112,271.306425 138.426282,270.958393 L135.66356,270.922255 C108.404278,270.532663 69.4042864,274.596972 57.019963,243.583075 C52.465773,232.178299 53.0984103,218.959081 58.6743992,208.020619 C65.3250733,194.973778 79.3249167,188.178341 93.3467129,186.476493 Z M178.495298,230.894938 L178.250824,230.904902 C165.682896,231.389151 153.116964,231.72992 140.542051,231.952117 C140.918241,235.181444 141.302413,238.411767 141.741468,241.63412 C142.085726,244.169954 142.454931,246.702799 142.839103,249.232654 C143.001753,250.303783 143.598468,251.966772 143.429831,253.027936 L143.368962,253.44742 L143.368962,253.44742 C144.014571,253.739364 144.600309,254.209664 145.03637,254.892197 C145.188043,255.128344 145.297807,255.366483 145.407571,255.603626 C155.170541,255.680348 165.676909,255.491033 175.629471,253.716447 L175.649428,253.500229 L175.649428,253.500229 C175.830039,252.228824 176.358899,251.372918 177.061386,250.786039 C177.76088,246.731694 177.697017,242.411311 177.967435,238.38885 C178.136071,235.889883 178.318678,233.392909 178.495298,230.894938 Z M130.93774,232.123497 C121.87903,232.277607 112.816379,232.396289 103.759597,232.285698 L99.6481393,232.22214 L99.6481393,232.22214 C100.516269,236.880303 101.461234,241.522523 102.246542,246.211574 C103.065777,251.098909 98.7640436,254.205679 95.0410632,254.080133 C95.4591626,254.148884 95.8762641,254.219628 96.2943635,254.278416 C107.926308,255.92347 120.004291,255.487047 131.808863,255.474094 C131.173731,251.767293 131.431054,247.584788 131.336033,244.49078 L131.317921,244.011527 C131.13731,240.046857 131.010583,236.085177 130.93774,232.123497 Z M69.4062821,231.268587 C69.720605,233.690832 70.3322874,236.061264 71.2473164,238.268286 C75.1139873,247.592582 83.9788918,251.943854 93.3586871,253.776231 C91.7311928,253.214262 90.4389764,251.864142 90.1126792,249.551502 C89.299431,243.801286 89.0070608,237.955417 88.9851081,232.116522 C82.448189,232.055742 75.8673645,231.916246 69.4062821,231.268587 Z M212.584867,229.277783 C207.930891,230.375814 202.522541,229.872633 197.956377,230.079884 C193.678592,230.274182 189.398811,230.443569 185.121025,230.616943 C185.322591,233.537386 185.519168,236.456834 185.732708,239.375285 C186.008114,243.147649 186.034059,247.134239 186.756502,250.890661 C195.365957,247.952282 203.08034,243.240314 208.867873,235.705549 C210.309767,233.828335 211.600986,231.625298 212.584867,229.277783 Z M91.3799494,201.775194 C83.6326376,203.609563 76.3004317,207.484557 72.3599198,214.573932 C70.020958,218.780726 68.9921741,223.766703 69.1897485,228.679944 C75.7376439,227.917699 82.3982965,227.628744 89.0270178,227.389608 C89.0489705,226.195923 89.0771321,225.003566 89.1129808,223.813719 L89.2151053,220.764114 C89.3957906,214.947692 89.4865796,207.643706 91.3799494,201.775194 Z M131.479572,202.48463 L128.069104,202.101567 C118.596243,201.022247 109.128468,199.889225 99.6551242,200.538664 C98.2840775,200.633321 96.892076,200.782781 95.4970809,200.987043 C97.1714741,207.029203 97.0307772,214.125552 97.7302705,220.106932 C98.000688,222.419573 98.3419529,224.713282 98.7201382,226.998024 L100.363598,226.921301 L100.363598,226.921301 C110.528702,226.370293 120.703784,226.031517 130.876871,225.627976 C130.876122,223.71788 130.8866,221.806663 130.917143,219.894746 L130.954703,217.982611 C131.070454,213.099262 130.755133,207.598146 131.479572,202.48463 Z M179.049105,201.709432 C169.127476,203.310644 158.873564,203.651412 149.127558,203.663369 C145.234942,203.668351 141.344323,203.429215 137.455699,203.084462 C137.709153,205.154977 137.84087,207.249407 138.031459,209.291027 C138.415432,213.416914 138.854327,217.536423 139.331283,221.652107 L139.756743,225.25333 L139.756743,225.25333 C152.260808,224.686379 164.763876,224.073594 177.264948,223.438888 L179.029148,223.344231 L179.029148,223.344231 L179.523638,216.423284 C179.860246,211.808262 180.23056,207.194273 180.753433,202.600212 L180.361278,202.458723 L180.361278,202.458723 C179.900271,202.269408 179.463213,202.008351 179.049105,201.709432 Z M183.357823,203.427223 C183.904645,209.952636 184.206994,216.504952 184.609128,223.041325 L192.850339,222.601065 C194.223751,222.526187 195.597126,222.449797 196.970501,222.370749 C202.310997,222.062862 209.173215,220.445708 214.452843,221.954255 C214.855974,217.154604 213.48393,212.478506 209.152261,209.254161 C201.547641,203.590632 191.864499,205.607342 183.357823,203.427223 Z M155.2009,145.0937 C167.4729,138.0657 198.2639,130.8827 200.2139,152.9677 C201.11069,163.130663 193.55511,171.551452 184.732334,175.308984 L184.4009,175.4477 C176.1259,178.8497 161.4589,182.6917 154.2979,175.3147 C148.3379,169.1747 156.2429,158.1657 163.6489,163.1957 C167.454921,165.779721 175.466095,163.875752 179.713009,162.646215 L179.9789,162.5687 C184.5619,161.2217 190.6719,156.9107 188.7769,151.2677 C187.0999,146.2757 179.9639,145.3637 175.4949,145.2017 C168.8239,144.9627 162.3319,146.5117 155.7219,147.0157 C154.6749,147.0957 154.3519,145.5797 155.2009,145.0937 Z M206.0359,109.581 C222.6919,108.801 233.0529,126.987 229.2229,141.888 C228.5609,144.459 225.6849,146.983 222.9089,146.694 L222.209444,146.629632 C221.8541,146.59548 221.4971,146.5506 221.1689,146.46 C218.5329,145.73 216.1699,142.988 216.3619,140.146 L216.412906,139.317884 C216.801522,132.278753 216.038672,124.168709 207.6729,122.464 C200.5779,121.018 196.6169,127.847 196.5329,134.133 C196.5169,135.249 195.2629,136.028 194.2759,135.428 C189.1469,132.307 188.2589,126.098 190.2179,120.751 C192.7009,113.976 198.9149,109.914 206.0359,109.581 Z M82.4329,113.4814 C94.5539,109.4374 107.6309,115.8984 113.4999,126.6144 C115.5589,127.2104 117.6149,128.7974 117.3289,131.2274 C116.9159,134.7234 116.2939,136.9274 113.8699,139.5784 C110.078488,143.725503 102.977604,141.605092 101.401739,136.499971 L101.3349,136.2694 C99.5449,129.6704 92.2809,125.3164 85.6639,127.6264 C77.9339,130.3244 78.1579,138.4884 72.7359,143.2444 C72.0989,143.8034 71.3349,143.8924 70.5709,143.5234 C64.8119,140.7404 65.8469,132.3644 67.8999,127.5704 C70.5929,121.2794 75.8269,115.6844 82.4329,113.4814 Z M65.9254,76.6741 C75.7474,66.6521 101.3594,56.9541 108.0784,75.4611 C109.3584,78.9861 106.6334,83.7391 102.9634,84.4701 C96.9534,85.6661 91.6214,83.0571 85.6514,83.5251 C80.8184,83.9061 75.7774,85.5211 71.9134,88.5151 C61.2114,96.8071 58.8574,110.8321 51.4004,121.3861 C51.0374,121.9001 50.3324,121.6841 50.2654,121.0781 C48.5674,105.7131 55.1674,87.6501 65.9254,76.6741 Z M194.0206,66.8082 C200.5386,64.5062 207.9196,64.7032 214.4716,66.7452 C221.0716,68.8032 227.1306,72.7112 231.7986,77.8172 C233.9166,80.1352 235.8766,82.6932 237.4486,85.4162 C238.2836,86.8592 239.1616,89.8402 240.1106,91.6152 C245.245093,94.5796058 247.439689,101.334701 242.842821,106.140464 L242.6356,106.3512 L242.0206,106.9612 C239.5496,109.4072 235.8236,110.4672 232.4506,109.4902 C224.9026,107.3062 223.9856,101.3612 221.3726,95.0512 C219.6466,90.8832 216.6896,87.1952 213.1046,84.4862 C204.6316,78.0862 190.7386,76.0472 180.5376,79.0632 C179.9946,79.2242 179.3566,78.5322 179.7436,78.0302 C181.6766,75.5262 182.7906,73.4712 185.3786,71.4512 C188.0056,69.4012 190.8726,67.9202 194.0206,66.8082 Z" id="Ink" fill="#000"/></g></g><g id="Beard" transform="translate(454.999934, 820.999659) scale(1 1)" fill="#000"><g id="Beard/None" stroke="none" stroke-width="1" fill="none" fill-rule="evenodd" fill-opacity="0"/></g><g id="Mask" transform="translate(360.000000, 783.000000) scale(1 1)" fill="#000"><g id="Mask/None" stroke="none" stroke-width="1" fill="none" fill-rule="evenodd" fill-opacity="0"/></g><g id="Accessories" transform="translate(379.000000, 724.000000) scale(1 1)" fill="#000"><g id="Accessories/Glasses 5" stroke="none" stroke-width="1" fill="none" fill-rule="evenodd"><path d="M367.0895,74.4323 C364.2615,82.1283 359.9575,90.1403 354.6945,96.6173 C333.4005,114.6493 312.7095,104.6653 302.2035,80.2263 C298.2115,62.9553 308.8105,44.3513 320.0415,31.6463 C336.2615,15.3893 362.7325,23.9213 370.1905,43.2473 C370.6435,45.7513 370.9175,48.2493 371.0485,50.7393 C370.8935,58.8303 369.9185,65.7453 367.0895,73.4323 M162.4095,58.9113 C190.4615,25.5443 242.9415,23.7603 241.6025,75.1153 C235.5765,140.1193 134.1055,124.1643 162.4095,58.9113 Z M375.9125,31.0763 C374.9295,29.4113 373.8385,27.8003 372.6475,26.2593 C372.2075,25.9973 371.9545,23.6733 370.3365,23.5013 C348.7095,-0.3577 310.7165,13.1793 296.9885,36.9533 C294.4815,39.9593 292.4365,43.4783 290.9285,47.1963 C277.4025,44.7153 261.6335,45.1973 249.0535,50.3063 C236.5795,17.7343 198.8145,14.8263 173.9275,28.7433 C158.4485,36.3563 148.4115,52.2993 133.3575,61.0573 C97.9685,63.6043 59.9875,55.6753 25.2375,64.5523 C-2.1685,70.2503 20.7415,84.1273 25.3375,74.8663 C58.1005,65.1863 96.9155,73.3663 130.9325,71.1853 C134.4695,77.1683 141.2525,82.0643 148.0125,81.8553 C155.3135,146.5763 249.6975,135.8443 252.9535,78.3113 C256.6465,72.4723 261.2395,66.8843 267.8135,63.2463 C270.3305,62.7253 272.7615,62.0483 274.9835,61.0003 C278.7815,60.4643 284.6335,62.0743 288.1275,65.2363 C300.0965,137.0523 369.0515,128.6883 381.3745,65.7743 C381.6195,65.5243 382.3045,64.5863 382.8305,63.0813 C387.0485,57.5043 397.3745,55.4313 395.7245,46.0163 C394.2555,36.5993 382.3635,36.7113 375.9125,31.0763 Z" id="Ink" fill="#000"/></g></g></g></svg>