<svg viewBox="0 0 279.99999999999994 279.99999999999994" xmlns="http://www.w3.org/2000/svg" xmlns:xlink="http://www.w3.org/1999/xlink" overflow="visible" width="279.99999999999994px" height="279.99999999999994px"><defs><circle id="masteravataaardefault-with-backdrop-path-1" cx="140" cy="140" r="140"/><path d="M83,36.3476251 C83,52.6289957 105.161905,65.8276544 132.5,65.8276544 C159.838095,65.8276544 182,52.6289957 182,36.3476251 C182,34.9853134 181.844841,33.6445843 181.544472,32.3313638 C210.784239,41.4879251 232,68.792221 232,101.051724 L232,110 L32,110 L32,101.051724 C32,68.3970853 53.7386736,40.8197864 83.5337207,32.0021267 C83.1821692,33.4207025 83,34.871494 83,36.3476251 Z" id="masteravataaardefault-with-backdrop-path-3"/></defs><g id="Master/Avataaar/Default with Backdrop" stroke="none" stroke-width="1" fill="none" fill-rule="evenodd"><mask id="masteravataaardefault-with-backdrop-mask-2" fill="#ffffff"><use xlink:href="#masteravataaardefault-with-backdrop-path-1" fill="#ffffff"/></mask><use id="Oval" fill="#ebad7f" xlink:href="#masteravataaardefault-with-backdrop-path-1"/><g id="Group" mask="url(#masteravataaardefault-with-backdrop-mask-2)"><g transform="translate(7.000000, 0.000000)"><path d="M133,36 C163.927946,36 189,61.072054 189,92 L189.000809,98.1660527 C194.675838,99.1185422 199,104.05429 199,110 L199,124 C199,130.052417 194.519235,135.058294 188.693975,135.881364 C186.627928,155.686472 174.237929,172.421678 157.001014,180.610469 L157,199 L161,199 C200.764502,199 233,231.235498 233,271 L233,280 L33,280 L33,271 C33,231.235498 65.235498,199 105,199 L109,199 L108.999984,180.610943 C91.7625487,172.422324 79.3721119,155.686854 77.3051107,135.88097 C71.480765,135.058294 67,130.052417 67,124 L67,110 C67,104.053942 71.3246685,99.1179645 77.0001873,98.1658855 L77,92 C77,61.072054 102.072054,36 133,36 Z" id="Body" fill="#eac7a8" fill-rule="evenodd"/><path d="M108.998216,180.610103 C116.272713,184.066155 124.410519,186 133,186 C141.588785,186 149.725969,184.066469 157.000016,180.610943 L157.000353,185.94579 C150.441661,190.398372 142.524652,193 134,193 C124.589035,193 115.918635,189.829263 108.998807,184.497795 Z" id="shadow" fill-opacity=".24" fill="#000" fill-rule="evenodd"/><g id="Nose" fill="none" transform="translate(105.000000, 122.000000) scale(1 1)" fill-rule="evenodd"><g id="Nose/Small" stroke="none" stroke-width="1" fill="none" fill-rule="evenodd"><path d="M20,7 C20,12.5228475 24.0470996,15 28,15 C31.9529004,15 36,12.5228475 36,7 C33.8327451,7.7317728 31.1406373,8.0976592 27.9236765,8.0976592 C24.7406373,8.0976592 22.0994118,7.7317728 20,7 Z" id="Nose" fill-opacity=".16" fill="#000"/></g></g><g id="Clothing" fill="none" transform="translate(1.000000, 170.000000) scale(1 1)"><defs><path d="M99,32.5 C99,44.3741221 113.998461,54 132.5,54 C151.001539,54 166,44.3741221 166,32.5 C166,31.4019929 165.871751,30.3232102 165.624342,29.2694852 C202.75978,32.1370674 232,63.1796858 232,101.051724 L232,110 L32,110 L32,101.051724 C32,62.8342194 61.7761079,31.571298 99.3946469,29.196636 C99.1341902,30.2738104 99,31.3768477 99,32.5 Z" id="clothinggraphic-shirt-path-1"/></defs><g id="Clothing/Graphic Shirt" stroke="none" stroke-width="1" fill="none" fill-rule="evenodd"><mask id="clothinggraphic-shirt-mask-2" fill="#ffffff"><use xlink:href="#clothinggraphic-shirt-path-1" fill="#ffffff"/></mask><use id="Clothes" fill="#9c7676" xlink:href="#clothinggraphic-shirt-path-1"/><g mask="url(#clothinggraphic-shirt-mask-2)"><g transform="translate(77.000000, 58.000000)" id="Clothing/Graphic"/></g></g></g><g id="Mouth" fill="none" transform="translate(79.000000, 134.000000) scale(1 1)" fill-rule="evenodd"><g id="Mouth/Eating" stroke="none" stroke-width="1" fill="none" fill-rule="evenodd"><g id="Om-Nom-Nom" opacity=".6" transform="translate(28.000000, 6.000000)" fill="#000" fill-opacity=".6"><path d="M45.7064761,0 C42.3399588,1.95870633 40.0195381,5.49520667 40.0195381,9.67694348 C40.0195381,15.344608 45.4930527,20.2451296 51.8234083,20.2451296 C51.8823878,20.2451296 51.9412524,20.2447983 52,20.244138 C50.6423552,20.7317259 49.1600404,21 47.6077404,21 C42.2861196,21 37.787011,17.8470634 36.3137083,13.513833 C33.8402487,15.6694366 30.1376666,17.0394229 26,17.0394229 C21.8623334,17.0394229 18.1597513,15.6694366 15.6851623,13.5125989 C14.212989,17.8470634 9.71388039,21 4.39225962,21 C2.83995964,21 1.35764479,20.7317259 0,20.244138 C0.0587475828,20.2447983 0.11761218,20.2451296 0.176591694,20.2451296 C6.50694731,20.2451296 11.9804619,15.344608 11.9804619,9.67694348 C11.9804619,5.49520667 9.66004124,1.95870633 6.29352385,0 C11.7918498,0.797121661 16.0171848,4.99477485 16.1905909,10.1049337 C18.754121,11.8420922 22.2048056,12.9056086 26,12.9056086 C29.7951944,12.9056086 33.245879,11.8420922 35.8100516,10.1058522 C35.9828152,4.99477485 40.2081502,0.797121661 45.7064761,0 Z" id="Delicious"/></g><circle id="Redish" fill-opacity=".2" fill="#FF4646" cx="17" cy="15" r="9"/><circle id="Redish" fill-opacity=".2" fill="#FF4646" cx="91" cy="15" r="9"/></g></g><g id="Eyes" fill="none" transform="translate(77.000000, 90.000000) scale(1 1)" fill-rule="evenodd"><defs><path d="M14,14.0481187 C23.6099827,14.0481187 28,18.4994466 28,11.5617716 C28,4.62409673 21.7319865,0 14,0 C6.2680135,0 0,4.62409673 0,11.5617716 C0,18.4994466 4.39001726,14.0481187 14,14.0481187 Z" id="eyessquint-path-1"/><path d="M14,14.0481187 C23.6099827,14.0481187 28,18.4994466 28,11.5617716 C28,4.62409673 21.7319865,0 14,0 C6.2680135,0 0,4.62409673 0,11.5617716 C0,18.4994466 4.39001726,14.0481187 14,14.0481187 Z" id="eyessquint-path-3"/></defs><g id="Eyes/Squint" stroke="none" stroke-width="1" fill="none" fill-rule="evenodd"><g id="Eye" transform="translate(16.000000, 13.000000)"><mask id="eyessquint-mask-2" fill="#ffffff"><use xlink:href="#eyessquint-path-1" fill="#ffffff"/></mask><use id="The-white-stuff" fill="#FFF" xlink:href="#eyessquint-path-1"/><circle fill-opacity=".7" fill="#000" mask="url(#eyessquint-mask-2)" cx="14" cy="10" r="6"/></g><g id="Eye" transform="translate(68.000000, 13.000000)"><mask id="eyessquint-mask-4" fill="#ffffff"><use xlink:href="#eyessquint-path-3" fill="#ffffff"/></mask><use id="Eyeball-Mask" fill="#FFF" xlink:href="#eyessquint-path-3"/><circle fill-opacity=".7" fill="#000" mask="url(#eyessquint-mask-4)" cx="14" cy="10" r="6"/></g></g></g><g id="Eyebrow/Outline" fill="none" transform="translate(77.000000, 82.000000) scale(1 1)" fill-rule="evenodd"><g id="Eyebrow/Outline/Up Down" stroke="none" stroke-width="1" fill="none" fill-rule="evenodd"><path d="M15.5914402,14.1619718 C20.0874642,7.83556966 29.6031809,4.65350252 39.3473715,7.79575991 C40.3986323,8.13476518 41.5256656,7.55736801 41.8646708,6.50610724 C42.2036761,5.45484647 41.6262789,4.32781316 40.5750182,3.98880789 C29.1665516,0.309863172 17.8358054,4.09887835 12.3309495,11.8448183 C11.6910852,12.7451779 11.9022584,13.9937761 12.8026181,14.6336404 C13.7029777,15.2735046 14.9515759,15.0623314 15.5914402,14.1619718 Z" id="Eyebrow" fill-opacity=".6" fill="#000" fill-rule="nonzero"/><path d="M73.6376405,21.1577995 C77.5525501,15.6490895 88.2853148,12.56006 97.5304219,14.8304032 C98.6031199,15.0938282 99.6862617,14.4377829 99.9496867,13.3650849 C100.213112,12.2923868 99.5570664,11.2092451 98.4843684,10.9458201 C87.7477584,8.30920485 75.3194947,11.8862211 70.3771498,18.840646 C69.7372855,19.7410057 69.9484587,20.9896038 70.8488184,21.6294681 C71.749178,22.2693324 72.9977762,22.0581591 73.6376405,21.1577995 Z" id="Eyebrow" fill-opacity=".6" fill="#000" fill-rule="nonzero" transform="translate(85.007549, 16.038421) scale(-1, 1) translate(-85.007549, -16.038421)"/></g></g><g id="Facial Hair" fill="none" transform="translate(50.000000, 72.000000) scale(1 1)" fill-rule="evenodd"><g id="Facial Hair/Blank" stroke="none" stroke-width="1" fill="none" fill-rule="evenodd" fill-opacity="0"/></g><g id="Hairstyle" fill="none" fill-rule="evenodd" transform="scale(1 1)"><g id="Hairstyle/Buzzcut" stroke="none" stroke-width="1" fill="none" fill-rule="evenodd"><path d="M133,36 C163.927946,36 189,61.072054 189,92 L189,110.085 L188.930212,110.199917 L188.809013,110.391504 L188.569113,110.749688 C186.782357,113.31112 185.276735,113.061224 184.052245,110 C183.872245,109.55 183.724645,108.8165 183.590491,107.85053 L183.502839,107.17267 L183.417923,106.42929 L183.292949,105.19872 L183.080659,102.86777 L182.795287,99.67331 L182.630245,97.94 L182.509077,96.74176 L182.377541,95.51328 L182.234389,94.25792 C182.209493,94.04664 182.184061,93.83438 182.158067,93.62121 L181.995151,92.33183 C180.266045,79.1235 176.252245,63.05 164.052245,60 C150.718912,56.6666667 140.718912,58.3333333 134.052245,65 C126.052245,57.6666667 115.718912,56 103.052245,60 C90.3222449,64.02 85.2235449,80.6092 83.2446999,93.225635 L83.0757099,94.344405 L82.9226799,95.439295 C82.8742499,95.799985 82.8283599,96.156255 82.7848899,96.507665 L82.6616199,97.546875 L82.5521499,98.554285 L82.4557599,99.527255 L82.3717299,100.463145 L82.2993399,101.359315 L82.2378699,102.213125 L82.1865999,103.021935 L82.1448099,103.783105 L82.1117799,104.493995 L82.0867899,105.151965 L82.0628049,106.03392 L82.0528599,106.781955 L82.0522449,107 C82.0522449,112.239568 78.6906444,114.117535 76.9998245,111.375807 L76.9998245,92 C76.9998245,61.072054 102.072054,36 133,36 Z" id="Path" fill="#2c1b18"/></g></g><g id="Accesories" fill="none" transform="translate(63.000000, 85.000000) scale(1 1)" fill-rule="evenodd"><g id="Accesories/Prescription 02" stroke="none" stroke-width="1" fill="none" fill-rule="evenodd"><g id="Wayfarers" transform="translate(6.000000, 7.000000)"><path d="M94.5299306,2 L97.5,2 C118.790455,2 126.354091,7.09629136 127.045455,7.77156439 C128.679318,7.77156439 130,9.06150904 130,10.6573466 L130,13.5431288 C130,15.0819721 128.771968,16.3363819 127.219267,16.4240198 L126.612705,16.4391531 C125.44626,16.4830476 122.230186,16.7150617 120.820725,17.9414221 C120.960175,19.434022 121,20.9643151 121,22.5 C121,34.5686429 110.721275,43 96,43 L93.2421498,43 C79.3147125,43 71,35.3359286 71,22.5 C71,20.9522934 71.0404506,19.4100634 71.1814034,17.906131 L69.8004908,17.3608351 C69.5558969,17.2641292 69.0281396,17.090392 68.2963505,16.9099044 C66.256272,16.4067419 64.1589087,16.253569 62.3040836,16.6343084 C61.6235903,16.7739931 60.9922286,16.9836085 60.4128127,17.266732 L58.8308166,18.0394014 C58.9619021,19.5011097 59,20.9979759 59,22.5 C59,34.5686429 48.7212748,43 34,43 L31.2421498,43 C17.3147125,43 9,35.3359286 9,22.5 C9,21.6610668 9.01188509,20.8237427 9.0452193,19.9932548 C8.93099603,19.9593697 8.86363636,19.7504239 8.86363636,19.3146932 C8.86363636,16.8880127 4.68515214,16.5019499 3.35563443,16.4405308 L2.95454545,16.428911 C1.32363636,16.428911 0,15.1389663 0,13.5431288 L0,10.6573466 C0,9.06150904 1.32363636,7.77156439 2.95454545,7.77156439 L3.07093469,7.66991985 C4.26044178,6.70687939 11.8996241,2.09744476 31.8653976,2.00151937 L35.4700694,2 C36.7306767,2 37.9242203,2.0341353 39.0542384,2.10047223 C51.4173567,2.52253128 54.909731,4.23413961 59.8502273,6.6518809 L60.2689233,6.85850899 L60.5639301,6.95819168 C61.3005076,7.19702359 63.0662164,7.70151679 65.0790606,7.76579519 C67.2462948,7.67278567 69.1000195,7.08540191 69.641698,6.89719767 L70.3244551,6.57039601 C75.33305,4.21287789 80.4386483,2.71580366 89.5614746,2.20060541 C91.0895989,2.06864066 92.7423376,2 94.5299306,2 Z M36.1732992,8.00192643 L32.3853606,8 C13.5815608,8 13.0174468,14.4367119 13.0005234,22.7271501 L13,23.5015498 C13,30.5719428 16.116254,39 30.9709365,39 L34,39 C46.3649085,39 55,32.6270373 55,23.5015498 L54.993687,21.7414887 C54.9091306,14.0134217 53.6920357,8.12378857 36.1732992,8.00192643 L36.1732992,8.00192643 Z M97.6146394,8 L94.3853606,8 C75.5815608,8 75.0174468,14.4367119 75.0005234,22.7271501 L75,23.5015498 C75,30.5719428 78.1194833,39 92.9709365,39 L96,39 C108.364909,39 117,32.6270373 117,23.5015498 L116.993351,21.711307 C116.905012,13.9167947 115.643025,8 97.6146394,8 Z" id="Shape" fill-opacity=".16" fill="#000"/><path d="M35.4700694,0 C57.1829942,0 59,10.127 59,20.5 C59,32.5686429 48.7212748,41 34,41 L31.2421498,41 C17.3147125,41 9,33.3359286 9,20.5 C9,10.127 10.8170058,0 32.5299306,0 L35.4700694,0 Z M35.6146394,6 L32.3853606,6 C13,6 13,12.8410159 13,21.5015498 C13,28.5719428 16.116254,37 30.9709365,37 L34,37 C46.3649085,37 55,30.6270373 55,21.5015498 L54.9994766,20.7271501 C54.9825532,12.4367119 54.4184392,6 35.6146394,6 Z" id="Left" fill="#252C2F" fill-rule="nonzero"/><path d="M97.4700694,0 C119.182994,0 121,10.127 121,20.5 C121,32.5686429 110.721275,41 96,41 L93.2421498,41 C79.3147125,41 71,33.3359286 71,20.5 C71,10.127 72.8170058,0 94.5299306,0 L97.4700694,0 Z M97.6146394,6 L94.3853606,6 C75.5815608,6 75.0174468,12.4367119 75.0005234,20.7271501 L75,21.5015498 C75,28.5719428 78.1194833,37 92.9709365,37 L96,37 C108.364909,37 117,30.6270373 117,21.5015498 C117,12.8410159 117,6 97.6146394,6 Z" id="Right" fill="#252C2F" fill-rule="nonzero"/><path d="M2.95454545,5.77156439 C3.64590909,5.09629136 11.2095455,0 32.5,0 C50.3513636,0 54.1302273,1.85267217 59.8502273,4.6518809 L60.2689233,4.85850899 C60.6666014,4.99901896 62.7002447,5.68982981 65.0790606,5.76579519 C67.2462948,5.67278567 69.1000195,5.08540191 69.641698,4.89719767 C76.1703915,1.7220864 82.5610971,0 97.5,0 C118.790455,0 126.354091,5.09629136 127.045455,5.77156439 C128.679318,5.77156439 130,7.06150904 130,8.65734659 L130,11.5431288 C130,13.1389663 128.679318,14.428911 127.045455,14.428911 C127.045455,14.428911 120.143997,14.428911 120.143997,17.3146932 C120.143997,20.2004754 118.181818,13.1389663 118.181818,11.5431288 L118.181818,8.73240251 C114.578575,7.35340151 108.128411,4.78617535 97.5,4.78617535 C85.6584651,4.78617535 79.7610984,6.88602813 74.7022935,8.97112368 L74.7588636,9.10752861 L74.7563667,11.0937608 L72.5391666,16.4436339 L69.8004908,15.3608351 C69.5558969,15.2641292 69.0281396,15.090392 68.2963505,14.9099044 C66.256272,14.4067419 64.1589087,14.253569 62.3040836,14.6343084 C61.6235903,14.7739931 60.9922286,14.9836085 60.4128127,15.266732 L57.7704824,16.5578701 L55.1266751,11.3962031 L55.2440909,9.10175705 L55.3248203,8.90683855 C50.9620526,6.87386374 46.9392639,4.78617535 32.5,4.78617535 C21.8721459,4.78617535 15.422131,7.3524397 11.8181818,8.7314671 L11.8181818,11.5431288 C11.8181818,13.1389663 8.86363636,20.2004754 8.86363636,17.3146932 C8.86363636,14.428911 2.95454545,14.428911 2.95454545,14.428911 C1.32363636,14.428911 0,13.1389663 0,11.5431288 L0,8.65734659 C0,7.06150904 1.32363636,5.77156439 2.95454545,5.77156439 Z" id="Stuff" fill="#252C2F" fill-rule="nonzero"/></g></g></g></g></g></g></svg>